<svg xmlns="http://www.w3.org/2000/svg" version="1.1" xmlns:xlink="http://www.w3.org/1999/xlink" xmlns:svgjs="http://svgjs.dev/svgjs" width="1440" height="560" preserveAspectRatio="none" viewBox="0 0 1440 560">
    <g mask="url(&quot;#SvgjsMask1163&quot;)" fill="none">
        <path d="M-109.83 388.51L-109.83 388.51" stroke="rgba(8, 51, 68, 1)" stroke-width="1.5"></path>
        <path d="M-109.83 388.51L-57.45 526.15" stroke="rgba(8, 51, 68, 1)" stroke-width="1.5"></path>
        <path d="M-109.83 388.51L62.81 385.46" stroke="rgba(8, 51, 68, 1)" stroke-width="1.5"></path>
        <path d="M-109.83 388.51L78.99 533.04" stroke="rgba(8, 51, 68, 1)" stroke-width="1.5"></path>
        <path d="M-109.83 388.51L206.62 360.11" stroke="rgba(8, 51, 68, 1)" stroke-width="1.5"></path>
        <path d="M-109.83 388.51L67.43 704.48" stroke="rgba(8, 51, 68, 1)" stroke-width="1.5"></path>
        <path d="M-57.45 526.15L-57.45 526.15" stroke="rgba(8, 51, 68, 1)" stroke-width="1.5"></path>
        <path d="M-57.45 526.15L78.99 533.04" stroke="rgba(8, 51, 68, 1)" stroke-width="1.5"></path>
        <path d="M62.81 385.46L62.81 385.46" stroke="rgba(8, 51, 68, 1)" stroke-width="1.5"></path>
        <path d="M62.81 385.46L206.62 360.11" stroke="rgba(8, 51, 68, 1)" stroke-width="1.5"></path>
        <path d="M62.81 385.46L78.99 533.04" stroke="rgba(8, 51, 68, 1)" stroke-width="1.5"></path>
        <path d="M78.99 533.04L78.99 533.04" stroke="rgba(8, 51, 68, 1)" stroke-width="1.5"></path>
        <path d="M67.43 704.48L67.43 704.48" stroke="rgba(8, 51, 68, 1)" stroke-width="1.5"></path>
        <path d="M67.43 704.48L78.99 533.04" stroke="rgba(8, 51, 68, 1)" stroke-width="1.5"></path>
        <path d="M67.43 704.48L250.08 683.03" stroke="rgba(8, 51, 68, 1)" stroke-width="1.5"></path>
        <path d="M67.43 704.48L-57.45 526.15" stroke="rgba(8, 51, 68, 1)" stroke-width="1.5"></path>
        <path d="M67.43 704.48L257.88 499.48" stroke="rgba(8, 51, 68, 1)" stroke-width="1.5"></path>
        <path d="M67.43 704.48L345.05 645.42" stroke="rgba(8, 51, 68, 1)" stroke-width="1.5"></path>
        <path d="M67.43 704.48L62.81 385.46" stroke="rgba(8, 51, 68, 1)" stroke-width="1.5"></path>
        <path d="M206.62 360.11L206.62 360.11" stroke="rgba(8, 51, 68, 1)" stroke-width="1.5"></path>
        <path d="M206.62 360.11L257.88 499.48" stroke="rgba(8, 51, 68, 1)" stroke-width="1.5"></path>
        <path d="M206.62 360.11L376.81 402.22" stroke="rgba(8, 51, 68, 1)" stroke-width="1.5"></path>
        <path d="M206.62 360.11L78.99 533.04" stroke="rgba(8, 51, 68, 1)" stroke-width="1.5"></path>
        <path d="M206.62 360.11L376.57 505.57" stroke="rgba(8, 51, 68, 1)" stroke-width="1.5"></path>
        <path d="M257.88 499.48L257.88 499.48" stroke="rgba(8, 51, 68, 1)" stroke-width="1.5"></path>
        <path d="M257.88 499.48L376.57 505.57" stroke="rgba(8, 51, 68, 1)" stroke-width="1.5"></path>
        <path d="M257.88 499.48L376.81 402.22" stroke="rgba(8, 51, 68, 1)" stroke-width="1.5"></path>
        <path d="M257.88 499.48L345.05 645.42" stroke="rgba(8, 51, 68, 1)" stroke-width="1.5"></path>
        <path d="M250.08 683.03L250.08 683.03" stroke="rgba(8, 51, 68, 1)" stroke-width="1.5"></path>
        <path d="M250.08 683.03L345.05 645.42" stroke="rgba(8, 51, 68, 1)" stroke-width="1.5"></path>
        <path d="M250.08 683.03L257.88 499.48" stroke="rgba(8, 51, 68, 1)" stroke-width="1.5"></path>
        <path d="M250.08 683.03L376.57 505.57" stroke="rgba(8, 51, 68, 1)" stroke-width="1.5"></path>
        <path d="M250.08 683.03L78.99 533.04" stroke="rgba(8, 51, 68, 1)" stroke-width="1.5"></path>
        <path d="M250.08 683.03L508.88 711.09" stroke="rgba(8, 51, 68, 1)" stroke-width="1.5"></path>
        <path d="M376.81 402.22L376.81 402.22" stroke="rgba(8, 51, 68, 1)" stroke-width="1.5"></path>
        <path d="M376.81 402.22L376.57 505.57" stroke="rgba(8, 51, 68, 1)" stroke-width="1.5"></path>
        <path d="M376.81 402.22L498 340.11" stroke="rgba(8, 51, 68, 1)" stroke-width="1.5"></path>
        <path d="M376.57 505.57L376.57 505.57" stroke="rgba(8, 51, 68, 1)" stroke-width="1.5"></path>
        <path d="M345.05 645.42L345.05 645.42" stroke="rgba(8, 51, 68, 1)" stroke-width="1.5"></path>
        <path d="M345.05 645.42L376.57 505.57" stroke="rgba(8, 51, 68, 1)" stroke-width="1.5"></path>
        <path d="M345.05 645.42L508.88 711.09" stroke="rgba(8, 51, 68, 1)" stroke-width="1.5"></path>
        <path d="M345.05 645.42L376.81 402.22" stroke="rgba(8, 51, 68, 1)" stroke-width="1.5"></path>
        <path d="M345.05 645.42L555.73 511.37" stroke="rgba(8, 51, 68, 1)" stroke-width="1.5"></path>
        <path d="M498 340.11L498 340.11" stroke="rgba(8, 51, 68, 1)" stroke-width="1.5"></path>
        <path d="M498 340.11L555.73 511.37" stroke="rgba(8, 51, 68, 1)" stroke-width="1.5"></path>
        <path d="M498 340.11L689.72 338.18" stroke="rgba(8, 51, 68, 1)" stroke-width="1.5"></path>
        <path d="M498 340.11L376.57 505.57" stroke="rgba(8, 51, 68, 1)" stroke-width="1.5"></path>
        <path d="M498 340.11L672.52 499.94" stroke="rgba(8, 51, 68, 1)" stroke-width="1.5"></path>
        <path d="M555.73 511.37L555.73 511.37" stroke="rgba(8, 51, 68, 1)" stroke-width="1.5"></path>
        <path d="M555.73 511.37L672.52 499.94" stroke="rgba(8, 51, 68, 1)" stroke-width="1.5"></path>
        <path d="M555.73 511.37L376.57 505.57" stroke="rgba(8, 51, 68, 1)" stroke-width="1.5"></path>
        <path d="M555.73 511.37L706.31 645.25" stroke="rgba(8, 51, 68, 1)" stroke-width="1.5"></path>
        <path d="M555.73 511.37L508.88 711.09" stroke="rgba(8, 51, 68, 1)" stroke-width="1.5"></path>
        <path d="M555.73 511.37L376.81 402.22" stroke="rgba(8, 51, 68, 1)" stroke-width="1.5"></path>
        <path d="M508.88 711.09L508.88 711.09" stroke="rgba(8, 51, 68, 1)" stroke-width="1.5"></path>
        <path d="M508.88 711.09L706.31 645.25" stroke="rgba(8, 51, 68, 1)" stroke-width="1.5"></path>
        <path d="M689.72 338.18L689.72 338.18" stroke="rgba(8, 51, 68, 1)" stroke-width="1.5"></path>
        <path d="M689.72 338.18L819.05 412.39" stroke="rgba(8, 51, 68, 1)" stroke-width="1.5"></path>
        <path d="M689.72 338.18L672.52 499.94" stroke="rgba(8, 51, 68, 1)" stroke-width="1.5"></path>
        <path d="M672.52 499.94L672.52 499.94" stroke="rgba(8, 51, 68, 1)" stroke-width="1.5"></path>
        <path d="M706.31 645.25L706.31 645.25" stroke="rgba(8, 51, 68, 1)" stroke-width="1.5"></path>
        <path d="M706.31 645.25L815.43 651.04" stroke="rgba(8, 51, 68, 1)" stroke-width="1.5"></path>
        <path d="M819.92 207.18L819.92 207.18" stroke="rgba(8, 51, 68, 1)" stroke-width="1.5"></path>
        <path d="M819.92 207.18L1001.33 202.84" stroke="rgba(8, 51, 68, 1)" stroke-width="1.5"></path>
        <path d="M819.92 207.18L689.72 338.18" stroke="rgba(8, 51, 68, 1)" stroke-width="1.5"></path>
        <path d="M819.92 207.18L980.58 112.13" stroke="rgba(8, 51, 68, 1)" stroke-width="1.5"></path>
        <path d="M819.92 207.18L819.05 412.39" stroke="rgba(8, 51, 68, 1)" stroke-width="1.5"></path>
        <path d="M819.92 207.18L956.98 361.17" stroke="rgba(8, 51, 68, 1)" stroke-width="1.5"></path>
        <path d="M819.05 412.39L819.05 412.39" stroke="rgba(8, 51, 68, 1)" stroke-width="1.5"></path>
        <path d="M819.05 412.39L840.2 511.71" stroke="rgba(8, 51, 68, 1)" stroke-width="1.5"></path>
        <path d="M840.2 511.71L840.2 511.71" stroke="rgba(8, 51, 68, 1)" stroke-width="1.5"></path>
        <path d="M840.2 511.71L965.11 495.09" stroke="rgba(8, 51, 68, 1)" stroke-width="1.5"></path>
        <path d="M840.2 511.71L815.43 651.04" stroke="rgba(8, 51, 68, 1)" stroke-width="1.5"></path>
        <path d="M815.43 651.04L815.43 651.04" stroke="rgba(8, 51, 68, 1)" stroke-width="1.5"></path>
        <path d="M815.43 651.04L973.02 644.18" stroke="rgba(8, 51, 68, 1)" stroke-width="1.5"></path>
        <path d="M815.43 651.04L672.52 499.94" stroke="rgba(8, 51, 68, 1)" stroke-width="1.5"></path>
        <path d="M815.43 651.04L965.11 495.09" stroke="rgba(8, 51, 68, 1)" stroke-width="1.5"></path>
        <path d="M1004.77 -58.99L1004.77 -58.99" stroke="rgba(8, 51, 68, 1)" stroke-width="1.5"></path>
        <path d="M1004.77 -58.99L1158.08 -87.52" stroke="rgba(8, 51, 68, 1)" stroke-width="1.5"></path>
        <path d="M1004.77 -58.99L980.58 112.13" stroke="rgba(8, 51, 68, 1)" stroke-width="1.5"></path>
        <path d="M1004.77 -58.99L1001.33 202.84" stroke="rgba(8, 51, 68, 1)" stroke-width="1.5"></path>
        <path d="M1004.77 -58.99L1269.97 -66.24" stroke="rgba(8, 51, 68, 1)" stroke-width="1.5"></path>
        <path d="M1004.77 -58.99L1094.48 213.78" stroke="rgba(8, 51, 68, 1)" stroke-width="1.5"></path>
        <path d="M1004.77 -58.99L819.92 207.18" stroke="rgba(8, 51, 68, 1)" stroke-width="1.5"></path>
        <path d="M980.58 112.13L980.58 112.13" stroke="rgba(8, 51, 68, 1)" stroke-width="1.5"></path>
        <path d="M980.58 112.13L1001.33 202.84" stroke="rgba(8, 51, 68, 1)" stroke-width="1.5"></path>
        <path d="M980.58 112.13L1094.48 213.78" stroke="rgba(8, 51, 68, 1)" stroke-width="1.5"></path>
        <path d="M1001.33 202.84L1001.33 202.84" stroke="rgba(8, 51, 68, 1)" stroke-width="1.5"></path>
        <path d="M1001.33 202.84L1094.48 213.78" stroke="rgba(8, 51, 68, 1)" stroke-width="1.5"></path>
        <path d="M1001.33 202.84L956.98 361.17" stroke="rgba(8, 51, 68, 1)" stroke-width="1.5"></path>
        <path d="M956.98 361.17L956.98 361.17" stroke="rgba(8, 51, 68, 1)" stroke-width="1.5"></path>
        <path d="M956.98 361.17L965.11 495.09" stroke="rgba(8, 51, 68, 1)" stroke-width="1.5"></path>
        <path d="M956.98 361.17L1100.88 382.87" stroke="rgba(8, 51, 68, 1)" stroke-width="1.5"></path>
        <path d="M956.98 361.17L819.05 412.39" stroke="rgba(8, 51, 68, 1)" stroke-width="1.5"></path>
        <path d="M965.11 495.09L965.11 495.09" stroke="rgba(8, 51, 68, 1)" stroke-width="1.5"></path>
        <path d="M965.11 495.09L973.02 644.18" stroke="rgba(8, 51, 68, 1)" stroke-width="1.5"></path>
        <path d="M965.11 495.09L1111.78 532.19" stroke="rgba(8, 51, 68, 1)" stroke-width="1.5"></path>
        <path d="M973.02 644.18L973.02 644.18" stroke="rgba(8, 51, 68, 1)" stroke-width="1.5"></path>
        <path d="M973.02 644.18L1104.52 663.06" stroke="rgba(8, 51, 68, 1)" stroke-width="1.5"></path>
        <path d="M1158.08 -87.52L1158.08 -87.52" stroke="rgba(8, 51, 68, 1)" stroke-width="1.5"></path>
        <path d="M1158.08 -87.52L1269.97 -66.24" stroke="rgba(8, 51, 68, 1)" stroke-width="1.5"></path>
        <path d="M1158.08 -87.52L1309.27 61.09" stroke="rgba(8, 51, 68, 1)" stroke-width="1.5"></path>
        <path d="M1158.08 -87.52L980.58 112.13" stroke="rgba(8, 51, 68, 1)" stroke-width="1.5"></path>
        <path d="M1094.48 213.78L1094.48 213.78" stroke="rgba(8, 51, 68, 1)" stroke-width="1.5"></path>
        <path d="M1094.48 213.78L1100.88 382.87" stroke="rgba(8, 51, 68, 1)" stroke-width="1.5"></path>
        <path d="M1094.48 213.78L1287.47 188.8" stroke="rgba(8, 51, 68, 1)" stroke-width="1.5"></path>
        <path d="M1100.88 382.87L1100.88 382.87" stroke="rgba(8, 51, 68, 1)" stroke-width="1.5"></path>
        <path d="M1100.88 382.87L1111.78 532.19" stroke="rgba(8, 51, 68, 1)" stroke-width="1.5"></path>
        <path d="M1111.78 532.19L1111.78 532.19" stroke="rgba(8, 51, 68, 1)" stroke-width="1.5"></path>
        <path d="M1111.78 532.19L1104.52 663.06" stroke="rgba(8, 51, 68, 1)" stroke-width="1.5"></path>
        <path d="M1111.78 532.19L973.02 644.18" stroke="rgba(8, 51, 68, 1)" stroke-width="1.5"></path>
        <path d="M1111.78 532.19L1310.32 560.51" stroke="rgba(8, 51, 68, 1)" stroke-width="1.5"></path>
        <path d="M1111.78 532.19L1272.74 396.44" stroke="rgba(8, 51, 68, 1)" stroke-width="1.5"></path>
        <path d="M1104.52 663.06L1104.52 663.06" stroke="rgba(8, 51, 68, 1)" stroke-width="1.5"></path>
        <path d="M1104.52 663.06L1282.1 705.1" stroke="rgba(8, 51, 68, 1)" stroke-width="1.5"></path>
        <path d="M1104.52 663.06L965.11 495.09" stroke="rgba(8, 51, 68, 1)" stroke-width="1.5"></path>
        <path d="M1104.52 663.06L1310.32 560.51" stroke="rgba(8, 51, 68, 1)" stroke-width="1.5"></path>
        <path d="M1104.52 663.06L1100.88 382.87" stroke="rgba(8, 51, 68, 1)" stroke-width="1.5"></path>
        <path d="M1269.97 -66.24L1269.97 -66.24" stroke="rgba(8, 51, 68, 1)" stroke-width="1.5"></path>
        <path d="M1269.97 -66.24L1309.27 61.09" stroke="rgba(8, 51, 68, 1)" stroke-width="1.5"></path>
        <path d="M1269.97 -66.24L1458.54 95.51" stroke="rgba(8, 51, 68, 1)" stroke-width="1.5"></path>
        <path d="M1269.97 -66.24L1287.47 188.8" stroke="rgba(8, 51, 68, 1)" stroke-width="1.5"></path>
        <path d="M1309.27 61.09L1309.27 61.09" stroke="rgba(8, 51, 68, 1)" stroke-width="1.5"></path>
        <path d="M1309.27 61.09L1287.47 188.8" stroke="rgba(8, 51, 68, 1)" stroke-width="1.5"></path>
        <path d="M1309.27 61.09L1458.54 95.51" stroke="rgba(8, 51, 68, 1)" stroke-width="1.5"></path>
        <path d="M1309.27 61.09L1440.02 189.28" stroke="rgba(8, 51, 68, 1)" stroke-width="1.5"></path>
        <path d="M1287.47 188.8L1287.47 188.8" stroke="rgba(8, 51, 68, 1)" stroke-width="1.5"></path>
        <path d="M1287.47 188.8L1440.02 189.28" stroke="rgba(8, 51, 68, 1)" stroke-width="1.5"></path>
        <path d="M1272.74 396.44L1272.74 396.44" stroke="rgba(8, 51, 68, 1)" stroke-width="1.5"></path>
        <path d="M1272.74 396.44L1394.51 386.95" stroke="rgba(8, 51, 68, 1)" stroke-width="1.5"></path>
        <path d="M1272.74 396.44L1310.32 560.51" stroke="rgba(8, 51, 68, 1)" stroke-width="1.5"></path>
        <path d="M1272.74 396.44L1100.88 382.87" stroke="rgba(8, 51, 68, 1)" stroke-width="1.5"></path>
        <path d="M1272.74 396.44L1287.47 188.8" stroke="rgba(8, 51, 68, 1)" stroke-width="1.5"></path>
        <path d="M1310.32 560.51L1310.32 560.51" stroke="rgba(8, 51, 68, 1)" stroke-width="1.5"></path>
        <path d="M1310.32 560.51L1444.89 549.71" stroke="rgba(8, 51, 68, 1)" stroke-width="1.5"></path>
        <path d="M1310.32 560.51L1282.1 705.1" stroke="rgba(8, 51, 68, 1)" stroke-width="1.5"></path>
        <path d="M1310.32 560.51L1442.59 656.31" stroke="rgba(8, 51, 68, 1)" stroke-width="1.5"></path>
        <path d="M1310.32 560.51L1394.51 386.95" stroke="rgba(8, 51, 68, 1)" stroke-width="1.5"></path>
        <path d="M1282.1 705.1L1282.1 705.1" stroke="rgba(8, 51, 68, 1)" stroke-width="1.5"></path>
        <path d="M1282.1 705.1L1442.59 656.31" stroke="rgba(8, 51, 68, 1)" stroke-width="1.5"></path>
        <path d="M1458.54 95.51L1458.54 95.51" stroke="rgba(8, 51, 68, 1)" stroke-width="1.5"></path>
        <path d="M1458.54 95.51L1544.18 64.97" stroke="rgba(8, 51, 68, 1)" stroke-width="1.5"></path>
        <path d="M1458.54 95.51L1440.02 189.28" stroke="rgba(8, 51, 68, 1)" stroke-width="1.5"></path>
        <path d="M1458.54 95.51L1542.15 234.68" stroke="rgba(8, 51, 68, 1)" stroke-width="1.5"></path>
        <path d="M1440.02 189.28L1440.02 189.28" stroke="rgba(8, 51, 68, 1)" stroke-width="1.5"></path>
        <path d="M1440.02 189.28L1542.15 234.68" stroke="rgba(8, 51, 68, 1)" stroke-width="1.5"></path>
        <path d="M1440.02 189.28L1544.18 64.97" stroke="rgba(8, 51, 68, 1)" stroke-width="1.5"></path>
        <path d="M1394.51 386.95L1394.51 386.95" stroke="rgba(8, 51, 68, 1)" stroke-width="1.5"></path>
        <path d="M1394.51 386.95L1564.61 386.37" stroke="rgba(8, 51, 68, 1)" stroke-width="1.5"></path>
        <path d="M1394.51 386.95L1444.89 549.71" stroke="rgba(8, 51, 68, 1)" stroke-width="1.5"></path>
        <path d="M1444.89 549.71L1444.89 549.71" stroke="rgba(8, 51, 68, 1)" stroke-width="1.5"></path>
        <path d="M1444.89 549.71L1442.59 656.31" stroke="rgba(8, 51, 68, 1)" stroke-width="1.5"></path>
        <path d="M1444.89 549.71L1576.86 553.73" stroke="rgba(8, 51, 68, 1)" stroke-width="1.5"></path>
        <path d="M1442.59 656.31L1442.59 656.31" stroke="rgba(8, 51, 68, 1)" stroke-width="1.5"></path>
        <path d="M1442.59 656.31L1541.19 660.2" stroke="rgba(8, 51, 68, 1)" stroke-width="1.5"></path>
        <path d="M1560.94 -91.45L1560.94 -91.45" stroke="rgba(8, 51, 68, 1)" stroke-width="1.5"></path>
        <path d="M1560.94 -91.45L1544.18 64.97" stroke="rgba(8, 51, 68, 1)" stroke-width="1.5"></path>
        <path d="M1560.94 -91.45L1458.54 95.51" stroke="rgba(8, 51, 68, 1)" stroke-width="1.5"></path>
        <path d="M1560.94 -91.45L1269.97 -66.24" stroke="rgba(8, 51, 68, 1)" stroke-width="1.5"></path>
        <path d="M1560.94 -91.45L1309.27 61.09" stroke="rgba(8, 51, 68, 1)" stroke-width="1.5"></path>
        <path d="M1560.94 -91.45L1440.02 189.28" stroke="rgba(8, 51, 68, 1)" stroke-width="1.5"></path>
        <path d="M1544.18 64.97L1544.18 64.97" stroke="rgba(8, 51, 68, 1)" stroke-width="1.5"></path>
        <path d="M1544.18 64.97L1542.15 234.68" stroke="rgba(8, 51, 68, 1)" stroke-width="1.5"></path>
        <path d="M1544.18 64.97L1309.27 61.09" stroke="rgba(8, 51, 68, 1)" stroke-width="1.5"></path>
        <path d="M1542.15 234.68L1542.15 234.68" stroke="rgba(8, 51, 68, 1)" stroke-width="1.5"></path>
        <path d="M1542.15 234.68L1564.61 386.37" stroke="rgba(8, 51, 68, 1)" stroke-width="1.5"></path>
        <path d="M1564.61 386.37L1564.61 386.37" stroke="rgba(8, 51, 68, 1)" stroke-width="1.5"></path>
        <path d="M1564.61 386.37L1576.86 553.73" stroke="rgba(8, 51, 68, 1)" stroke-width="1.5"></path>
        <path d="M1564.61 386.37L1444.89 549.71" stroke="rgba(8, 51, 68, 1)" stroke-width="1.5"></path>
        <path d="M1564.61 386.37L1440.02 189.28" stroke="rgba(8, 51, 68, 1)" stroke-width="1.5"></path>
        <path d="M1564.61 386.37L1541.19 660.2" stroke="rgba(8, 51, 68, 1)" stroke-width="1.5"></path>
        <path d="M1576.86 553.73L1576.86 553.73" stroke="rgba(8, 51, 68, 1)" stroke-width="1.5"></path>
        <path d="M1576.86 553.73L1541.19 660.2" stroke="rgba(8, 51, 68, 1)" stroke-width="1.5"></path>
        <path d="M1541.19 660.2L1541.19 660.2" stroke="rgba(8, 51, 68, 1)" stroke-width="1.5"></path>
        <circle r="5" cx="-109.83" cy="388.51" fill="rgba(8, 51, 68, 1)"></circle>
        <circle r="5" cx="-57.45" cy="526.15" fill="rgba(8, 51, 68, 1)"></circle>
        <circle r="5" cx="62.81" cy="385.46" fill="rgba(8, 51, 68, 1)"></circle>
        <circle r="5" cx="78.99" cy="533.04" fill="rgba(8, 51, 68, 1)"></circle>
        <circle r="5" cx="67.43" cy="704.48" fill="rgba(8, 51, 68, 1)"></circle>
        <circle r="5" cx="206.62" cy="360.11" fill="rgba(8, 51, 68, 1)"></circle>
        <circle r="5" cx="257.88" cy="499.48" fill="rgba(8, 51, 68, 1)"></circle>
        <circle r="5" cx="250.08" cy="683.03" fill="rgba(8, 51, 68, 1)"></circle>
        <circle r="5" cx="376.81" cy="402.22" fill="rgba(8, 51, 68, 1)"></circle>
        <circle r="5" cx="376.57" cy="505.57" fill="rgba(8, 51, 68, 1)"></circle>
        <circle r="5" cx="345.05" cy="645.42" fill="rgba(8, 51, 68, 1)"></circle>
        <circle r="5" cx="498" cy="340.11" fill="rgba(8, 51, 68, 1)"></circle>
        <circle r="5" cx="555.73" cy="511.37" fill="rgba(8, 51, 68, 1)"></circle>
        <circle r="5" cx="508.88" cy="711.09" fill="rgba(8, 51, 68, 1)"></circle>
        <circle r="5" cx="689.72" cy="338.18" fill="rgba(8, 51, 68, 1)"></circle>
        <circle r="5" cx="672.52" cy="499.94" fill="rgba(8, 51, 68, 1)"></circle>
        <circle r="5" cx="706.31" cy="645.25" fill="rgba(8, 51, 68, 1)"></circle>
        <circle r="5" cx="819.92" cy="207.18" fill="rgba(8, 51, 68, 1)"></circle>
        <circle r="5" cx="819.05" cy="412.39" fill="rgba(8, 51, 68, 1)"></circle>
        <circle r="5" cx="840.2" cy="511.71" fill="rgba(8, 51, 68, 1)"></circle>
        <circle r="5" cx="815.43" cy="651.04" fill="rgba(8, 51, 68, 1)"></circle>
        <circle r="5" cx="1004.77" cy="-58.99" fill="rgba(8, 51, 68, 1)"></circle>
        <circle r="5" cx="980.58" cy="112.13" fill="rgba(8, 51, 68, 1)"></circle>
        <circle r="5" cx="1001.33" cy="202.84" fill="rgba(8, 51, 68, 1)"></circle>
        <circle r="5" cx="956.98" cy="361.17" fill="rgba(8, 51, 68, 1)"></circle>
        <circle r="5" cx="965.11" cy="495.09" fill="rgba(8, 51, 68, 1)"></circle>
        <circle r="5" cx="973.02" cy="644.18" fill="rgba(8, 51, 68, 1)"></circle>
        <circle r="5" cx="1158.08" cy="-87.52" fill="rgba(8, 51, 68, 1)"></circle>
        <circle r="5" cx="1094.48" cy="213.78" fill="rgba(8, 51, 68, 1)"></circle>
        <circle r="5" cx="1100.88" cy="382.87" fill="rgba(8, 51, 68, 1)"></circle>
        <circle r="5" cx="1111.78" cy="532.19" fill="rgba(8, 51, 68, 1)"></circle>
        <circle r="5" cx="1104.52" cy="663.06" fill="rgba(8, 51, 68, 1)"></circle>
        <circle r="5" cx="1269.97" cy="-66.24" fill="rgba(8, 51, 68, 1)"></circle>
        <circle r="5" cx="1309.27" cy="61.09" fill="rgba(8, 51, 68, 1)"></circle>
        <circle r="5" cx="1287.47" cy="188.8" fill="rgba(8, 51, 68, 1)"></circle>
        <circle r="5" cx="1272.74" cy="396.44" fill="rgba(8, 51, 68, 1)"></circle>
        <circle r="5" cx="1310.32" cy="560.51" fill="rgba(8, 51, 68, 1)"></circle>
        <circle r="5" cx="1282.1" cy="705.1" fill="rgba(8, 51, 68, 1)"></circle>
        <circle r="5" cx="1458.54" cy="95.51" fill="rgba(8, 51, 68, 1)"></circle>
        <circle r="5" cx="1440.02" cy="189.28" fill="rgba(8, 51, 68, 1)"></circle>
        <circle r="5" cx="1394.51" cy="386.95" fill="rgba(8, 51, 68, 1)"></circle>
        <circle r="5" cx="1444.89" cy="549.71" fill="rgba(8, 51, 68, 1)"></circle>
        <circle r="5" cx="1442.59" cy="656.31" fill="rgba(8, 51, 68, 1)"></circle>
        <circle r="5" cx="1560.94" cy="-91.45" fill="rgba(8, 51, 68, 1)"></circle>
        <circle r="5" cx="1544.18" cy="64.97" fill="rgba(8, 51, 68, 1)"></circle>
        <circle r="5" cx="1542.15" cy="234.68" fill="rgba(8, 51, 68, 1)"></circle>
        <circle r="5" cx="1564.61" cy="386.37" fill="rgba(8, 51, 68, 1)"></circle>
        <circle r="5" cx="1576.86" cy="553.73" fill="rgba(8, 51, 68, 1)"></circle>
        <circle r="5" cx="1541.19" cy="660.2" fill="rgba(8, 51, 68, 1)"></circle>
        <path d="M803.07 354.95L803.07 354.95" stroke="hsl(187.89999999999998, 85.7%, 69.3%)" stroke-width="1.5"></path>
        <path d="M803.07 354.95L818.41 507.95" stroke="hsl(187.89999999999998, 85.7%, 69.3%)" stroke-width="1.5"></path>
        <path d="M803.07 354.95L985.89 410.51" stroke="hsl(187.89999999999998, 85.7%, 69.3%)" stroke-width="1.5"></path>
        <path d="M803.07 354.95L967.3 256.13" stroke="hsl(187.89999999999998, 85.7%, 69.3%)" stroke-width="1.5"></path>
        <path d="M803.07 354.95L958.93 502.04" stroke="hsl(187.89999999999998, 85.7%, 69.3%)" stroke-width="1.5"></path>
        <path d="M803.07 354.95L710.92 655.39" stroke="hsl(187.89999999999998, 85.7%, 69.3%)" stroke-width="1.5"></path>
        <path d="M1159.08 -46.01L1159.08 -46.01" stroke="hsl(187.89999999999998, 85.7%, 69.3%)" stroke-width="1.5"></path>
        <path d="M1159.08 -46.01L1310.53 -71.98" stroke="hsl(187.89999999999998, 85.7%, 69.3%)" stroke-width="1.5"></path>
        <path d="M1159.08 -46.01L1310.27 109.76" stroke="hsl(187.89999999999998, 85.7%, 69.3%)" stroke-width="1.5"></path>
        <path d="M1159.08 -46.01L1245.85 189.25" stroke="hsl(187.89999999999998, 85.7%, 69.3%)" stroke-width="1.5"></path>
        <path d="M1159.08 -46.01L1452.64 -94.75" stroke="hsl(187.89999999999998, 85.7%, 69.3%)" stroke-width="1.5"></path>
        <path d="M1150.66 254.94L1150.66 254.94" stroke="hsl(187.89999999999998, 85.7%, 69.3%)" stroke-width="1.5"></path>
        <path d="M1150.66 254.94L1245.85 189.25" stroke="hsl(187.89999999999998, 85.7%, 69.3%)" stroke-width="1.5"></path>
        <path d="M1150.66 254.94L1126.4 375.83" stroke="hsl(187.89999999999998, 85.7%, 69.3%)" stroke-width="1.5"></path>
        <path d="M1150.66 254.94L967.3 256.13" stroke="hsl(187.89999999999998, 85.7%, 69.3%)" stroke-width="1.5"></path>
        <path d="M1126.4 375.83L1126.4 375.83" stroke="hsl(187.89999999999998, 85.7%, 69.3%)" stroke-width="1.5"></path>
        <path d="M1126.4 375.83L985.89 410.51" stroke="hsl(187.89999999999998, 85.7%, 69.3%)" stroke-width="1.5"></path>
        <path d="M1126.4 375.83L1152.51 542.13" stroke="hsl(187.89999999999998, 85.7%, 69.3%)" stroke-width="1.5"></path>
        <path d="M1130.1 702.75L1130.1 702.75" stroke="hsl(187.89999999999998, 85.7%, 69.3%)" stroke-width="1.5"></path>
        <path d="M1130.1 702.75L1289.62 704.34" stroke="hsl(187.89999999999998, 85.7%, 69.3%)" stroke-width="1.5"></path>
        <path d="M1130.1 702.75L1152.51 542.13" stroke="hsl(187.89999999999998, 85.7%, 69.3%)" stroke-width="1.5"></path>
        <path d="M1130.1 702.75L949.45 648.33" stroke="hsl(187.89999999999998, 85.7%, 69.3%)" stroke-width="1.5"></path>
        <path d="M1130.1 702.75L1261.54 525.81" stroke="hsl(187.89999999999998, 85.7%, 69.3%)" stroke-width="1.5"></path>
        <path d="M1303.03 411.99L1303.03 411.99" stroke="hsl(187.89999999999998, 85.7%, 69.3%)" stroke-width="1.5"></path>
        <path d="M1303.03 411.99L1261.54 525.81" stroke="hsl(187.89999999999998, 85.7%, 69.3%)" stroke-width="1.5"></path>
        <path d="M1303.03 411.99L1428.88 362.41" stroke="hsl(187.89999999999998, 85.7%, 69.3%)" stroke-width="1.5"></path>
        <path d="M1303.03 411.99L1126.4 375.83" stroke="hsl(187.89999999999998, 85.7%, 69.3%)" stroke-width="1.5"></path>
        <path d="M1303.03 411.99L1447.28 523.78" stroke="hsl(187.89999999999998, 85.7%, 69.3%)" stroke-width="1.5"></path>
        <path d="M1303.03 411.99L1152.51 542.13" stroke="hsl(187.89999999999998, 85.7%, 69.3%)" stroke-width="1.5"></path>
        <path d="M1303.03 411.99L1150.66 254.94" stroke="hsl(187.89999999999998, 85.7%, 69.3%)" stroke-width="1.5"></path>
        <path d="M1447.28 523.78L1447.28 523.78" stroke="hsl(187.89999999999998, 85.7%, 69.3%)" stroke-width="1.5"></path>
        <path d="M1447.28 523.78L1458.34 641.06" stroke="hsl(187.89999999999998, 85.7%, 69.3%)" stroke-width="1.5"></path>
        <path d="M1447.28 523.78L1562.31 495.47" stroke="hsl(187.89999999999998, 85.7%, 69.3%)" stroke-width="1.5"></path>
        <path d="M1447.28 523.78L1428.88 362.41" stroke="hsl(187.89999999999998, 85.7%, 69.3%)" stroke-width="1.5"></path>
        <path d="M1447.28 523.78L1563.39 392.58" stroke="hsl(187.89999999999998, 85.7%, 69.3%)" stroke-width="1.5"></path>
        <path d="M1447.28 523.78L1261.54 525.81" stroke="hsl(187.89999999999998, 85.7%, 69.3%)" stroke-width="1.5"></path>
        <path d="M-67.48 511.09L-67.48 511.09" stroke="hsl(187.89999999999998, 85.7%, 69.3%)" stroke-width="1.5"></path>
        <path d="M-67.48 511.09L70.87 550.59" stroke="hsl(187.89999999999998, 85.7%, 69.3%)" stroke-width="1.5"></path>
        <path d="M-67.48 511.09L-105.12 684.7" stroke="hsl(187.89999999999998, 85.7%, 69.3%)" stroke-width="1.5"></path>
        <path d="M-67.48 511.09L83.17 655.61" stroke="hsl(187.89999999999998, 85.7%, 69.3%)" stroke-width="1.5"></path>
        <path d="M-67.48 511.09L234.93 519.46" stroke="hsl(187.89999999999998, 85.7%, 69.3%)" stroke-width="1.5"></path>
        <path d="M-105.12 684.7L-105.12 684.7" stroke="hsl(187.89999999999998, 85.7%, 69.3%)" stroke-width="1.5"></path>
        <path d="M70.87 550.59L70.87 550.59" stroke="hsl(187.89999999999998, 85.7%, 69.3%)" stroke-width="1.5"></path>
        <path d="M70.87 550.59L83.17 655.61" stroke="hsl(187.89999999999998, 85.7%, 69.3%)" stroke-width="1.5"></path>
        <path d="M70.87 550.59L205.55 645.27" stroke="hsl(187.89999999999998, 85.7%, 69.3%)" stroke-width="1.5"></path>
        <path d="M70.87 550.59L234.93 519.46" stroke="hsl(187.89999999999998, 85.7%, 69.3%)" stroke-width="1.5"></path>
        <path d="M70.87 550.59L-105.12 684.7" stroke="hsl(187.89999999999998, 85.7%, 69.3%)" stroke-width="1.5"></path>
        <path d="M83.17 655.61L83.17 655.61" stroke="hsl(187.89999999999998, 85.7%, 69.3%)" stroke-width="1.5"></path>
        <path d="M83.17 655.61L205.55 645.27" stroke="hsl(187.89999999999998, 85.7%, 69.3%)" stroke-width="1.5"></path>
        <path d="M83.17 655.61L-105.12 684.7" stroke="hsl(187.89999999999998, 85.7%, 69.3%)" stroke-width="1.5"></path>
        <path d="M83.17 655.61L234.93 519.46" stroke="hsl(187.89999999999998, 85.7%, 69.3%)" stroke-width="1.5"></path>
        <path d="M83.17 655.61L377.38 667.41" stroke="hsl(187.89999999999998, 85.7%, 69.3%)" stroke-width="1.5"></path>
        <path d="M234.93 519.46L234.93 519.46" stroke="hsl(187.89999999999998, 85.7%, 69.3%)" stroke-width="1.5"></path>
        <path d="M234.93 519.46L362.41 524.18" stroke="hsl(187.89999999999998, 85.7%, 69.3%)" stroke-width="1.5"></path>
        <path d="M234.93 519.46L205.55 645.27" stroke="hsl(187.89999999999998, 85.7%, 69.3%)" stroke-width="1.5"></path>
        <path d="M205.55 645.27L205.55 645.27" stroke="hsl(187.89999999999998, 85.7%, 69.3%)" stroke-width="1.5"></path>
        <path d="M362.41 524.18L362.41 524.18" stroke="hsl(187.89999999999998, 85.7%, 69.3%)" stroke-width="1.5"></path>
        <path d="M362.41 524.18L501.64 546" stroke="hsl(187.89999999999998, 85.7%, 69.3%)" stroke-width="1.5"></path>
        <path d="M362.41 524.18L377.38 667.41" stroke="hsl(187.89999999999998, 85.7%, 69.3%)" stroke-width="1.5"></path>
        <path d="M362.41 524.18L205.55 645.27" stroke="hsl(187.89999999999998, 85.7%, 69.3%)" stroke-width="1.5"></path>
        <path d="M362.41 524.18L507.38 695.44" stroke="hsl(187.89999999999998, 85.7%, 69.3%)" stroke-width="1.5"></path>
        <path d="M377.38 667.41L377.38 667.41" stroke="hsl(187.89999999999998, 85.7%, 69.3%)" stroke-width="1.5"></path>
        <path d="M377.38 667.41L507.38 695.44" stroke="hsl(187.89999999999998, 85.7%, 69.3%)" stroke-width="1.5"></path>
        <path d="M501.64 546L501.64 546" stroke="hsl(187.89999999999998, 85.7%, 69.3%)" stroke-width="1.5"></path>
        <path d="M501.64 546L507.38 695.44" stroke="hsl(187.89999999999998, 85.7%, 69.3%)" stroke-width="1.5"></path>
        <path d="M501.64 546L377.38 667.41" stroke="hsl(187.89999999999998, 85.7%, 69.3%)" stroke-width="1.5"></path>
        <path d="M507.38 695.44L507.38 695.44" stroke="hsl(187.89999999999998, 85.7%, 69.3%)" stroke-width="1.5"></path>
        <path d="M710.92 655.39L710.92 655.39" stroke="hsl(187.89999999999998, 85.7%, 69.3%)" stroke-width="1.5"></path>
        <path d="M710.92 655.39L814.7 707.42" stroke="hsl(187.89999999999998, 85.7%, 69.3%)" stroke-width="1.5"></path>
        <path d="M710.92 655.39L818.41 507.95" stroke="hsl(187.89999999999998, 85.7%, 69.3%)" stroke-width="1.5"></path>
        <path d="M710.92 655.39L507.38 695.44" stroke="hsl(187.89999999999998, 85.7%, 69.3%)" stroke-width="1.5"></path>
        <path d="M818.41 507.95L818.41 507.95" stroke="hsl(187.89999999999998, 85.7%, 69.3%)" stroke-width="1.5"></path>
        <path d="M818.41 507.95L958.93 502.04" stroke="hsl(187.89999999999998, 85.7%, 69.3%)" stroke-width="1.5"></path>
        <path d="M818.41 507.95L949.45 648.33" stroke="hsl(187.89999999999998, 85.7%, 69.3%)" stroke-width="1.5"></path>
        <path d="M818.41 507.95L985.89 410.51" stroke="hsl(187.89999999999998, 85.7%, 69.3%)" stroke-width="1.5"></path>
        <path d="M818.41 507.95L814.7 707.42" stroke="hsl(187.89999999999998, 85.7%, 69.3%)" stroke-width="1.5"></path>
        <path d="M814.7 707.42L814.7 707.42" stroke="hsl(187.89999999999998, 85.7%, 69.3%)" stroke-width="1.5"></path>
        <path d="M814.7 707.42L949.45 648.33" stroke="hsl(187.89999999999998, 85.7%, 69.3%)" stroke-width="1.5"></path>
        <path d="M967.3 256.13L967.3 256.13" stroke="hsl(187.89999999999998, 85.7%, 69.3%)" stroke-width="1.5"></path>
        <path d="M967.3 256.13L985.89 410.51" stroke="hsl(187.89999999999998, 85.7%, 69.3%)" stroke-width="1.5"></path>
        <path d="M967.3 256.13L1126.4 375.83" stroke="hsl(187.89999999999998, 85.7%, 69.3%)" stroke-width="1.5"></path>
        <path d="M967.3 256.13L958.93 502.04" stroke="hsl(187.89999999999998, 85.7%, 69.3%)" stroke-width="1.5"></path>
        <path d="M967.3 256.13L1245.85 189.25" stroke="hsl(187.89999999999998, 85.7%, 69.3%)" stroke-width="1.5"></path>
        <path d="M985.89 410.51L985.89 410.51" stroke="hsl(187.89999999999998, 85.7%, 69.3%)" stroke-width="1.5"></path>
        <path d="M985.89 410.51L958.93 502.04" stroke="hsl(187.89999999999998, 85.7%, 69.3%)" stroke-width="1.5"></path>
        <path d="M958.93 502.04L958.93 502.04" stroke="hsl(187.89999999999998, 85.7%, 69.3%)" stroke-width="1.5"></path>
        <path d="M958.93 502.04L949.45 648.33" stroke="hsl(187.89999999999998, 85.7%, 69.3%)" stroke-width="1.5"></path>
        <path d="M958.93 502.04L1152.51 542.13" stroke="hsl(187.89999999999998, 85.7%, 69.3%)" stroke-width="1.5"></path>
        <path d="M958.93 502.04L1126.4 375.83" stroke="hsl(187.89999999999998, 85.7%, 69.3%)" stroke-width="1.5"></path>
        <path d="M949.45 648.33L949.45 648.33" stroke="hsl(187.89999999999998, 85.7%, 69.3%)" stroke-width="1.5"></path>
        <path d="M1152.51 542.13L1152.51 542.13" stroke="hsl(187.89999999999998, 85.7%, 69.3%)" stroke-width="1.5"></path>
        <path d="M1152.51 542.13L1261.54 525.81" stroke="hsl(187.89999999999998, 85.7%, 69.3%)" stroke-width="1.5"></path>
        <path d="M1310.53 -71.98L1310.53 -71.98" stroke="hsl(187.89999999999998, 85.7%, 69.3%)" stroke-width="1.5"></path>
        <path d="M1310.53 -71.98L1452.64 -94.75" stroke="hsl(187.89999999999998, 85.7%, 69.3%)" stroke-width="1.5"></path>
        <path d="M1310.27 109.76L1310.27 109.76" stroke="hsl(187.89999999999998, 85.7%, 69.3%)" stroke-width="1.5"></path>
        <path d="M1310.27 109.76L1245.85 189.25" stroke="hsl(187.89999999999998, 85.7%, 69.3%)" stroke-width="1.5"></path>
        <path d="M1310.27 109.76L1390.2 203.8" stroke="hsl(187.89999999999998, 85.7%, 69.3%)" stroke-width="1.5"></path>
        <path d="M1245.85 189.25L1245.85 189.25" stroke="hsl(187.89999999999998, 85.7%, 69.3%)" stroke-width="1.5"></path>
        <path d="M1245.85 189.25L1390.2 203.8" stroke="hsl(187.89999999999998, 85.7%, 69.3%)" stroke-width="1.5"></path>
        <path d="M1245.85 189.25L1126.4 375.83" stroke="hsl(187.89999999999998, 85.7%, 69.3%)" stroke-width="1.5"></path>
        <path d="M1261.54 525.81L1261.54 525.81" stroke="hsl(187.89999999999998, 85.7%, 69.3%)" stroke-width="1.5"></path>
        <path d="M1261.54 525.81L1289.62 704.34" stroke="hsl(187.89999999999998, 85.7%, 69.3%)" stroke-width="1.5"></path>
        <path d="M1289.62 704.34L1289.62 704.34" stroke="hsl(187.89999999999998, 85.7%, 69.3%)" stroke-width="1.5"></path>
        <path d="M1289.62 704.34L1458.34 641.06" stroke="hsl(187.89999999999998, 85.7%, 69.3%)" stroke-width="1.5"></path>
        <path d="M1452.64 -94.75L1452.64 -94.75" stroke="hsl(187.89999999999998, 85.7%, 69.3%)" stroke-width="1.5"></path>
        <path d="M1452.64 -94.75L1572.3 -108.36" stroke="hsl(187.89999999999998, 85.7%, 69.3%)" stroke-width="1.5"></path>
        <path d="M1452.64 -94.75L1451.79 59.73" stroke="hsl(187.89999999999998, 85.7%, 69.3%)" stroke-width="1.5"></path>
        <path d="M1452.64 -94.75L1592.65 63.92" stroke="hsl(187.89999999999998, 85.7%, 69.3%)" stroke-width="1.5"></path>
        <path d="M1451.79 59.73L1451.79 59.73" stroke="hsl(187.89999999999998, 85.7%, 69.3%)" stroke-width="1.5"></path>
        <path d="M1451.79 59.73L1592.65 63.92" stroke="hsl(187.89999999999998, 85.7%, 69.3%)" stroke-width="1.5"></path>
        <path d="M1451.79 59.73L1310.27 109.76" stroke="hsl(187.89999999999998, 85.7%, 69.3%)" stroke-width="1.5"></path>
        <path d="M1390.2 203.8L1390.2 203.8" stroke="hsl(187.89999999999998, 85.7%, 69.3%)" stroke-width="1.5"></path>
        <path d="M1428.88 362.41L1428.88 362.41" stroke="hsl(187.89999999999998, 85.7%, 69.3%)" stroke-width="1.5"></path>
        <path d="M1458.34 641.06L1458.34 641.06" stroke="hsl(187.89999999999998, 85.7%, 69.3%)" stroke-width="1.5"></path>
        <path d="M1458.34 641.06L1572.64 691.03" stroke="hsl(187.89999999999998, 85.7%, 69.3%)" stroke-width="1.5"></path>
        <path d="M1458.34 641.06L1562.31 495.47" stroke="hsl(187.89999999999998, 85.7%, 69.3%)" stroke-width="1.5"></path>
        <path d="M1458.34 641.06L1261.54 525.81" stroke="hsl(187.89999999999998, 85.7%, 69.3%)" stroke-width="1.5"></path>
        <path d="M1458.34 641.06L1563.39 392.58" stroke="hsl(187.89999999999998, 85.7%, 69.3%)" stroke-width="1.5"></path>
        <path d="M1572.3 -108.36L1572.3 -108.36" stroke="hsl(187.89999999999998, 85.7%, 69.3%)" stroke-width="1.5"></path>
        <path d="M1592.65 63.92L1592.65 63.92" stroke="hsl(187.89999999999998, 85.7%, 69.3%)" stroke-width="1.5"></path>
        <path d="M1592.65 63.92L1552 228.17" stroke="hsl(187.89999999999998, 85.7%, 69.3%)" stroke-width="1.5"></path>
        <path d="M1592.65 63.92L1572.3 -108.36" stroke="hsl(187.89999999999998, 85.7%, 69.3%)" stroke-width="1.5"></path>
        <path d="M1552 228.17L1552 228.17" stroke="hsl(187.89999999999998, 85.7%, 69.3%)" stroke-width="1.5"></path>
        <path d="M1552 228.17L1390.2 203.8" stroke="hsl(187.89999999999998, 85.7%, 69.3%)" stroke-width="1.5"></path>
        <path d="M1552 228.17L1563.39 392.58" stroke="hsl(187.89999999999998, 85.7%, 69.3%)" stroke-width="1.5"></path>
        <path d="M1552 228.17L1428.88 362.41" stroke="hsl(187.89999999999998, 85.7%, 69.3%)" stroke-width="1.5"></path>
        <path d="M1552 228.17L1451.79 59.73" stroke="hsl(187.89999999999998, 85.7%, 69.3%)" stroke-width="1.5"></path>
        <path d="M1552 228.17L1562.31 495.47" stroke="hsl(187.89999999999998, 85.7%, 69.3%)" stroke-width="1.5"></path>
        <path d="M1563.39 392.58L1563.39 392.58" stroke="hsl(187.89999999999998, 85.7%, 69.3%)" stroke-width="1.5"></path>
        <path d="M1563.39 392.58L1562.31 495.47" stroke="hsl(187.89999999999998, 85.7%, 69.3%)" stroke-width="1.5"></path>
        <path d="M1563.39 392.58L1428.88 362.41" stroke="hsl(187.89999999999998, 85.7%, 69.3%)" stroke-width="1.5"></path>
        <path d="M1562.31 495.47L1562.31 495.47" stroke="hsl(187.89999999999998, 85.7%, 69.3%)" stroke-width="1.5"></path>
        <path d="M1572.64 691.03L1572.64 691.03" stroke="hsl(187.89999999999998, 85.7%, 69.3%)" stroke-width="1.5"></path>
        <path d="M1572.64 691.03L1562.31 495.47" stroke="hsl(187.89999999999998, 85.7%, 69.3%)" stroke-width="1.5"></path>
        <path d="M1572.64 691.03L1447.28 523.78" stroke="hsl(187.89999999999998, 85.7%, 69.3%)" stroke-width="1.5"></path>
        <path d="M1572.64 691.03L1289.62 704.34" stroke="hsl(187.89999999999998, 85.7%, 69.3%)" stroke-width="1.5"></path>
        <path d="M1572.64 691.03L1563.39 392.58" stroke="hsl(187.89999999999998, 85.7%, 69.3%)" stroke-width="1.5"></path>
        <path d="M1572.64 691.03L1261.54 525.81" stroke="hsl(187.89999999999998, 85.7%, 69.3%)" stroke-width="1.5"></path>
        <circle r="25" cx="803.07" cy="354.95" fill="url(&quot;#SvgjsRadialGradient1164&quot;)"></circle>
        <circle r="25" cx="1159.08" cy="-46.01" fill="url(&quot;#SvgjsRadialGradient1164&quot;)"></circle>
        <circle r="25" cx="1150.66" cy="254.94" fill="url(&quot;#SvgjsRadialGradient1164&quot;)"></circle>
        <circle r="25" cx="1126.4" cy="375.83" fill="url(&quot;#SvgjsRadialGradient1164&quot;)"></circle>
        <circle r="25" cx="1130.1" cy="702.75" fill="url(&quot;#SvgjsRadialGradient1164&quot;)"></circle>
        <circle r="25" cx="1303.03" cy="411.99" fill="url(&quot;#SvgjsRadialGradient1164&quot;)"></circle>
        <circle r="25" cx="1447.28" cy="523.78" fill="url(&quot;#SvgjsRadialGradient1164&quot;)"></circle>
        <circle r="5" cx="-67.48" cy="511.09" fill="#91e9f7"></circle>
        <circle r="5" cx="-105.12" cy="684.7" fill="#91e9f7"></circle>
        <circle r="5" cx="70.87" cy="550.59" fill="#91e9f7"></circle>
        <circle r="5" cx="83.17" cy="655.61" fill="#91e9f7"></circle>
        <circle r="5" cx="234.93" cy="519.46" fill="#91e9f7"></circle>
        <circle r="5" cx="205.55" cy="645.27" fill="#91e9f7"></circle>
        <circle r="5" cx="362.41" cy="524.18" fill="#91e9f7"></circle>
        <circle r="5" cx="377.38" cy="667.41" fill="#91e9f7"></circle>
        <circle r="5" cx="501.64" cy="546" fill="#91e9f7"></circle>
        <circle r="5" cx="507.38" cy="695.44" fill="#91e9f7"></circle>
        <circle r="5" cx="710.92" cy="655.39" fill="#91e9f7"></circle>
        <circle r="5" cx="818.41" cy="507.95" fill="#91e9f7"></circle>
        <circle r="5" cx="814.7" cy="707.42" fill="#91e9f7"></circle>
        <circle r="5" cx="967.3" cy="256.13" fill="#91e9f7"></circle>
        <circle r="5" cx="985.89" cy="410.51" fill="#91e9f7"></circle>
        <circle r="5" cx="958.93" cy="502.04" fill="#91e9f7"></circle>
        <circle r="5" cx="949.45" cy="648.33" fill="#91e9f7"></circle>
        <circle r="5" cx="1152.51" cy="542.13" fill="#91e9f7"></circle>
        <circle r="5" cx="1310.53" cy="-71.98" fill="#91e9f7"></circle>
        <circle r="5" cx="1310.27" cy="109.76" fill="#91e9f7"></circle>
        <circle r="5" cx="1245.85" cy="189.25" fill="#91e9f7"></circle>
        <circle r="5" cx="1261.54" cy="525.81" fill="#91e9f7"></circle>
        <circle r="5" cx="1289.62" cy="704.34" fill="#91e9f7"></circle>
        <circle r="5" cx="1452.64" cy="-94.75" fill="#91e9f7"></circle>
        <circle r="5" cx="1451.79" cy="59.73" fill="#91e9f7"></circle>
        <circle r="5" cx="1390.2" cy="203.8" fill="#91e9f7"></circle>
        <circle r="5" cx="1428.88" cy="362.41" fill="#91e9f7"></circle>
        <circle r="5" cx="1458.34" cy="641.06" fill="#91e9f7"></circle>
        <circle r="5" cx="1572.3" cy="-108.36" fill="#91e9f7"></circle>
        <circle r="5" cx="1592.65" cy="63.92" fill="#91e9f7"></circle>
        <circle r="5" cx="1552" cy="228.17" fill="#91e9f7"></circle>
        <circle r="5" cx="1563.39" cy="392.58" fill="#91e9f7"></circle>
        <circle r="5" cx="1562.31" cy="495.47" fill="#91e9f7"></circle>
        <circle r="5" cx="1572.64" cy="691.03" fill="#91e9f7"></circle>
    </g>
    <defs>
        <mask id="SvgjsMask1163">
            <rect width="1440" height="560" fill="#ffffff"></rect>
        </mask>
        <radialGradient id="SvgjsRadialGradient1164">
            <stop stop-color="#ffffff" offset="0.1"></stop>
            <stop stop-color="rgba(34, 211, 238, 1)" offset="0.2"></stop>
            <stop stop-color="rgba(34, 211, 238, 0)" offset="1"></stop>
        </radialGradient>
    </defs>
</svg>