<svg xmlns="http://www.w3.org/2000/svg" version="1.1" xmlns:xlink="http://www.w3.org/1999/xlink" xmlns:svgjs="http://svgjs.dev/svgjs" width="1440" height="560" preserveAspectRatio="none" viewBox="0 0 1440 560">
    <g mask="url(&quot;#SvgjsMask1026&quot;)" fill="none">
        <path d="M-47.04 384.81L-47.04 384.81" stroke="rgba(8, 51, 68, 1)" stroke-width="1.5"></path>
        <path d="M-47.04 384.81L-77.06 497.27" stroke="rgba(8, 51, 68, 1)" stroke-width="1.5"></path>
        <path d="M-47.04 384.81L77.35 375.56" stroke="rgba(8, 51, 68, 1)" stroke-width="1.5"></path>
        <path d="M-47.04 384.81L74.83 531.39" stroke="rgba(8, 51, 68, 1)" stroke-width="1.5"></path>
        <path d="M-47.04 384.81L-87.19 643.53" stroke="rgba(8, 51, 68, 1)" stroke-width="1.5"></path>
        <path d="M-47.04 384.81L254.8 369.57" stroke="rgba(8, 51, 68, 1)" stroke-width="1.5"></path>
        <path d="M-77.06 497.27L-77.06 497.27" stroke="rgba(8, 51, 68, 1)" stroke-width="1.5"></path>
        <path d="M-77.06 497.27L-87.19 643.53" stroke="rgba(8, 51, 68, 1)" stroke-width="1.5"></path>
        <path d="M-87.19 643.53L-87.19 643.53" stroke="rgba(8, 51, 68, 1)" stroke-width="1.5"></path>
        <path d="M-87.19 643.53L88.51 698.48" stroke="rgba(8, 51, 68, 1)" stroke-width="1.5"></path>
        <path d="M77.35 375.56L77.35 375.56" stroke="rgba(8, 51, 68, 1)" stroke-width="1.5"></path>
        <path d="M77.35 375.56L74.83 531.39" stroke="rgba(8, 51, 68, 1)" stroke-width="1.5"></path>
        <path d="M77.35 375.56L254.8 369.57" stroke="rgba(8, 51, 68, 1)" stroke-width="1.5"></path>
        <path d="M77.35 375.56L-77.06 497.27" stroke="rgba(8, 51, 68, 1)" stroke-width="1.5"></path>
        <path d="M77.35 375.56L234.52 521.25" stroke="rgba(8, 51, 68, 1)" stroke-width="1.5"></path>
        <path d="M77.35 375.56L369.54 410.93" stroke="rgba(8, 51, 68, 1)" stroke-width="1.5"></path>
        <path d="M74.83 531.39L74.83 531.39" stroke="rgba(8, 51, 68, 1)" stroke-width="1.5"></path>
        <path d="M74.83 531.39L-77.06 497.27" stroke="rgba(8, 51, 68, 1)" stroke-width="1.5"></path>
        <path d="M74.83 531.39L234.52 521.25" stroke="rgba(8, 51, 68, 1)" stroke-width="1.5"></path>
        <path d="M74.83 531.39L88.51 698.48" stroke="rgba(8, 51, 68, 1)" stroke-width="1.5"></path>
        <path d="M74.83 531.39L225.52 656.11" stroke="rgba(8, 51, 68, 1)" stroke-width="1.5"></path>
        <path d="M88.51 698.48L88.51 698.48" stroke="rgba(8, 51, 68, 1)" stroke-width="1.5"></path>
        <path d="M88.51 698.48L225.52 656.11" stroke="rgba(8, 51, 68, 1)" stroke-width="1.5"></path>
        <path d="M88.51 698.48L234.52 521.25" stroke="rgba(8, 51, 68, 1)" stroke-width="1.5"></path>
        <path d="M88.51 698.48L-77.06 497.27" stroke="rgba(8, 51, 68, 1)" stroke-width="1.5"></path>
        <path d="M88.51 698.48L345.49 643.44" stroke="rgba(8, 51, 68, 1)" stroke-width="1.5"></path>
        <path d="M254.8 369.57L254.8 369.57" stroke="rgba(8, 51, 68, 1)" stroke-width="1.5"></path>
        <path d="M254.8 369.57L369.54 410.93" stroke="rgba(8, 51, 68, 1)" stroke-width="1.5"></path>
        <path d="M254.8 369.57L234.52 521.25" stroke="rgba(8, 51, 68, 1)" stroke-width="1.5"></path>
        <path d="M234.52 521.25L234.52 521.25" stroke="rgba(8, 51, 68, 1)" stroke-width="1.5"></path>
        <path d="M234.52 521.25L225.52 656.11" stroke="rgba(8, 51, 68, 1)" stroke-width="1.5"></path>
        <path d="M234.52 521.25L345.49 643.44" stroke="rgba(8, 51, 68, 1)" stroke-width="1.5"></path>
        <path d="M234.52 521.25L369.54 410.93" stroke="rgba(8, 51, 68, 1)" stroke-width="1.5"></path>
        <path d="M225.52 656.11L225.52 656.11" stroke="rgba(8, 51, 68, 1)" stroke-width="1.5"></path>
        <path d="M225.52 656.11L345.49 643.44" stroke="rgba(8, 51, 68, 1)" stroke-width="1.5"></path>
        <path d="M225.52 656.11L487.77 559.84" stroke="rgba(8, 51, 68, 1)" stroke-width="1.5"></path>
        <path d="M225.52 656.11L369.54 410.93" stroke="rgba(8, 51, 68, 1)" stroke-width="1.5"></path>
        <path d="M369.54 410.93L369.54 410.93" stroke="rgba(8, 51, 68, 1)" stroke-width="1.5"></path>
        <path d="M369.54 410.93L487.77 559.84" stroke="rgba(8, 51, 68, 1)" stroke-width="1.5"></path>
        <path d="M369.54 410.93L559.56 363.34" stroke="rgba(8, 51, 68, 1)" stroke-width="1.5"></path>
        <path d="M369.54 410.93L345.49 643.44" stroke="rgba(8, 51, 68, 1)" stroke-width="1.5"></path>
        <path d="M345.49 643.44L345.49 643.44" stroke="rgba(8, 51, 68, 1)" stroke-width="1.5"></path>
        <path d="M345.49 643.44L487.77 559.84" stroke="rgba(8, 51, 68, 1)" stroke-width="1.5"></path>
        <path d="M345.49 643.44L524.91 679.93" stroke="rgba(8, 51, 68, 1)" stroke-width="1.5"></path>
        <path d="M559.56 363.34L559.56 363.34" stroke="rgba(8, 51, 68, 1)" stroke-width="1.5"></path>
        <path d="M559.56 363.34L685.98 398.53" stroke="rgba(8, 51, 68, 1)" stroke-width="1.5"></path>
        <path d="M559.56 363.34L650.26 261.64" stroke="rgba(8, 51, 68, 1)" stroke-width="1.5"></path>
        <path d="M559.56 363.34L667.13 507.94" stroke="rgba(8, 51, 68, 1)" stroke-width="1.5"></path>
        <path d="M487.77 559.84L487.77 559.84" stroke="rgba(8, 51, 68, 1)" stroke-width="1.5"></path>
        <path d="M487.77 559.84L524.91 679.93" stroke="rgba(8, 51, 68, 1)" stroke-width="1.5"></path>
        <path d="M524.91 679.93L524.91 679.93" stroke="rgba(8, 51, 68, 1)" stroke-width="1.5"></path>
        <path d="M524.91 679.93L667.13 507.94" stroke="rgba(8, 51, 68, 1)" stroke-width="1.5"></path>
        <path d="M524.91 679.93L225.52 656.11" stroke="rgba(8, 51, 68, 1)" stroke-width="1.5"></path>
        <path d="M524.91 679.93L369.54 410.93" stroke="rgba(8, 51, 68, 1)" stroke-width="1.5"></path>
        <path d="M524.91 679.93L559.56 363.34" stroke="rgba(8, 51, 68, 1)" stroke-width="1.5"></path>
        <path d="M650.26 261.64L650.26 261.64" stroke="rgba(8, 51, 68, 1)" stroke-width="1.5"></path>
        <path d="M650.26 261.64L685.98 398.53" stroke="rgba(8, 51, 68, 1)" stroke-width="1.5"></path>
        <path d="M650.26 261.64L793.64 221.66" stroke="rgba(8, 51, 68, 1)" stroke-width="1.5"></path>
        <path d="M650.26 261.64L809.87 377.28" stroke="rgba(8, 51, 68, 1)" stroke-width="1.5"></path>
        <path d="M650.26 261.64L667.13 507.94" stroke="rgba(8, 51, 68, 1)" stroke-width="1.5"></path>
        <path d="M685.98 398.53L685.98 398.53" stroke="rgba(8, 51, 68, 1)" stroke-width="1.5"></path>
        <path d="M685.98 398.53L667.13 507.94" stroke="rgba(8, 51, 68, 1)" stroke-width="1.5"></path>
        <path d="M685.98 398.53L809.87 377.28" stroke="rgba(8, 51, 68, 1)" stroke-width="1.5"></path>
        <path d="M667.13 507.94L667.13 507.94" stroke="rgba(8, 51, 68, 1)" stroke-width="1.5"></path>
        <path d="M667.13 507.94L850.05 518.45" stroke="rgba(8, 51, 68, 1)" stroke-width="1.5"></path>
        <path d="M667.13 507.94L487.77 559.84" stroke="rgba(8, 51, 68, 1)" stroke-width="1.5"></path>
        <path d="M667.13 507.94L809.87 377.28" stroke="rgba(8, 51, 68, 1)" stroke-width="1.5"></path>
        <path d="M793.64 221.66L793.64 221.66" stroke="rgba(8, 51, 68, 1)" stroke-width="1.5"></path>
        <path d="M793.64 221.66L809.87 377.28" stroke="rgba(8, 51, 68, 1)" stroke-width="1.5"></path>
        <path d="M793.64 221.66L979.25 238.67" stroke="rgba(8, 51, 68, 1)" stroke-width="1.5"></path>
        <path d="M793.64 221.66L685.98 398.53" stroke="rgba(8, 51, 68, 1)" stroke-width="1.5"></path>
        <path d="M793.64 221.66L967.23 103.51" stroke="rgba(8, 51, 68, 1)" stroke-width="1.5"></path>
        <path d="M809.87 377.28L809.87 377.28" stroke="rgba(8, 51, 68, 1)" stroke-width="1.5"></path>
        <path d="M809.87 377.28L949.3 370.2" stroke="rgba(8, 51, 68, 1)" stroke-width="1.5"></path>
        <path d="M809.87 377.28L850.05 518.45" stroke="rgba(8, 51, 68, 1)" stroke-width="1.5"></path>
        <path d="M850.05 518.45L850.05 518.45" stroke="rgba(8, 51, 68, 1)" stroke-width="1.5"></path>
        <path d="M850.05 518.45L990.99 530.57" stroke="rgba(8, 51, 68, 1)" stroke-width="1.5"></path>
        <path d="M850.05 518.45L855.24 679.09" stroke="rgba(8, 51, 68, 1)" stroke-width="1.5"></path>
        <path d="M850.05 518.45L949.56 657.33" stroke="rgba(8, 51, 68, 1)" stroke-width="1.5"></path>
        <path d="M850.05 518.45L949.3 370.2" stroke="rgba(8, 51, 68, 1)" stroke-width="1.5"></path>
        <path d="M855.24 679.09L855.24 679.09" stroke="rgba(8, 51, 68, 1)" stroke-width="1.5"></path>
        <path d="M855.24 679.09L949.56 657.33" stroke="rgba(8, 51, 68, 1)" stroke-width="1.5"></path>
        <path d="M855.24 679.09L990.99 530.57" stroke="rgba(8, 51, 68, 1)" stroke-width="1.5"></path>
        <path d="M855.24 679.09L667.13 507.94" stroke="rgba(8, 51, 68, 1)" stroke-width="1.5"></path>
        <path d="M942.99 -73.74L942.99 -73.74" stroke="rgba(8, 51, 68, 1)" stroke-width="1.5"></path>
        <path d="M942.99 -73.74L967.23 103.51" stroke="rgba(8, 51, 68, 1)" stroke-width="1.5"></path>
        <path d="M942.99 -73.74L1138.53 66.79" stroke="rgba(8, 51, 68, 1)" stroke-width="1.5"></path>
        <path d="M942.99 -73.74L979.25 238.67" stroke="rgba(8, 51, 68, 1)" stroke-width="1.5"></path>
        <path d="M942.99 -73.74L793.64 221.66" stroke="rgba(8, 51, 68, 1)" stroke-width="1.5"></path>
        <path d="M942.99 -73.74L1292.76 -64.12" stroke="rgba(8, 51, 68, 1)" stroke-width="1.5"></path>
        <path d="M967.23 103.51L967.23 103.51" stroke="rgba(8, 51, 68, 1)" stroke-width="1.5"></path>
        <path d="M967.23 103.51L979.25 238.67" stroke="rgba(8, 51, 68, 1)" stroke-width="1.5"></path>
        <path d="M967.23 103.51L1138.53 66.79" stroke="rgba(8, 51, 68, 1)" stroke-width="1.5"></path>
        <path d="M979.25 238.67L979.25 238.67" stroke="rgba(8, 51, 68, 1)" stroke-width="1.5"></path>
        <path d="M979.25 238.67L949.3 370.2" stroke="rgba(8, 51, 68, 1)" stroke-width="1.5"></path>
        <path d="M979.25 238.67L1119.85 228.77" stroke="rgba(8, 51, 68, 1)" stroke-width="1.5"></path>
        <path d="M949.3 370.2L949.3 370.2" stroke="rgba(8, 51, 68, 1)" stroke-width="1.5"></path>
        <path d="M949.3 370.2L990.99 530.57" stroke="rgba(8, 51, 68, 1)" stroke-width="1.5"></path>
        <path d="M990.99 530.57L990.99 530.57" stroke="rgba(8, 51, 68, 1)" stroke-width="1.5"></path>
        <path d="M990.99 530.57L1114.8 502.19" stroke="rgba(8, 51, 68, 1)" stroke-width="1.5"></path>
        <path d="M990.99 530.57L949.56 657.33" stroke="rgba(8, 51, 68, 1)" stroke-width="1.5"></path>
        <path d="M949.56 657.33L949.56 657.33" stroke="rgba(8, 51, 68, 1)" stroke-width="1.5"></path>
        <path d="M949.56 657.33L1119.48 641.03" stroke="rgba(8, 51, 68, 1)" stroke-width="1.5"></path>
        <path d="M1138.53 66.79L1138.53 66.79" stroke="rgba(8, 51, 68, 1)" stroke-width="1.5"></path>
        <path d="M1138.53 66.79L1119.85 228.77" stroke="rgba(8, 51, 68, 1)" stroke-width="1.5"></path>
        <path d="M1138.53 66.79L1292.76 -64.12" stroke="rgba(8, 51, 68, 1)" stroke-width="1.5"></path>
        <path d="M1119.85 228.77L1119.85 228.77" stroke="rgba(8, 51, 68, 1)" stroke-width="1.5"></path>
        <path d="M1119.85 228.77L1155.82 385.36" stroke="rgba(8, 51, 68, 1)" stroke-width="1.5"></path>
        <path d="M1119.85 228.77L967.23 103.51" stroke="rgba(8, 51, 68, 1)" stroke-width="1.5"></path>
        <path d="M1119.85 228.77L949.3 370.2" stroke="rgba(8, 51, 68, 1)" stroke-width="1.5"></path>
        <path d="M1119.85 228.77L1306.68 395.17" stroke="rgba(8, 51, 68, 1)" stroke-width="1.5"></path>
        <path d="M1155.82 385.36L1155.82 385.36" stroke="rgba(8, 51, 68, 1)" stroke-width="1.5"></path>
        <path d="M1155.82 385.36L1114.8 502.19" stroke="rgba(8, 51, 68, 1)" stroke-width="1.5"></path>
        <path d="M1155.82 385.36L1306.68 395.17" stroke="rgba(8, 51, 68, 1)" stroke-width="1.5"></path>
        <path d="M1114.8 502.19L1114.8 502.19" stroke="rgba(8, 51, 68, 1)" stroke-width="1.5"></path>
        <path d="M1119.48 641.03L1119.48 641.03" stroke="rgba(8, 51, 68, 1)" stroke-width="1.5"></path>
        <path d="M1119.48 641.03L1114.8 502.19" stroke="rgba(8, 51, 68, 1)" stroke-width="1.5"></path>
        <path d="M1119.48 641.03L990.99 530.57" stroke="rgba(8, 51, 68, 1)" stroke-width="1.5"></path>
        <path d="M1119.48 641.03L1303.52 656.15" stroke="rgba(8, 51, 68, 1)" stroke-width="1.5"></path>
        <path d="M1119.48 641.03L1300.12 537.8" stroke="rgba(8, 51, 68, 1)" stroke-width="1.5"></path>
        <path d="M1292.76 -64.12L1292.76 -64.12" stroke="rgba(8, 51, 68, 1)" stroke-width="1.5"></path>
        <path d="M1292.76 -64.12L1424.06 -96.02" stroke="rgba(8, 51, 68, 1)" stroke-width="1.5"></path>
        <path d="M1292.76 -64.12L1397.75 94.83" stroke="rgba(8, 51, 68, 1)" stroke-width="1.5"></path>
        <path d="M1292.76 -64.12L1597.32 -110.4" stroke="rgba(8, 51, 68, 1)" stroke-width="1.5"></path>
        <path d="M1292.76 -64.12L1428.37 217.77" stroke="rgba(8, 51, 68, 1)" stroke-width="1.5"></path>
        <path d="M1292.76 -64.12L1579.81 110.18" stroke="rgba(8, 51, 68, 1)" stroke-width="1.5"></path>
        <path d="M1306.68 395.17L1306.68 395.17" stroke="rgba(8, 51, 68, 1)" stroke-width="1.5"></path>
        <path d="M1306.68 395.17L1404.22 352.97" stroke="rgba(8, 51, 68, 1)" stroke-width="1.5"></path>
        <path d="M1300.12 537.8L1300.12 537.8" stroke="rgba(8, 51, 68, 1)" stroke-width="1.5"></path>
        <path d="M1300.12 537.8L1390.33 528.62" stroke="rgba(8, 51, 68, 1)" stroke-width="1.5"></path>
        <path d="M1300.12 537.8L1303.52 656.15" stroke="rgba(8, 51, 68, 1)" stroke-width="1.5"></path>
        <path d="M1303.52 656.15L1303.52 656.15" stroke="rgba(8, 51, 68, 1)" stroke-width="1.5"></path>
        <path d="M1303.52 656.15L1446.75 687.98" stroke="rgba(8, 51, 68, 1)" stroke-width="1.5"></path>
        <path d="M1303.52 656.15L1390.33 528.62" stroke="rgba(8, 51, 68, 1)" stroke-width="1.5"></path>
        <path d="M1303.52 656.15L1538.5 643.22" stroke="rgba(8, 51, 68, 1)" stroke-width="1.5"></path>
        <path d="M1303.52 656.15L1114.8 502.19" stroke="rgba(8, 51, 68, 1)" stroke-width="1.5"></path>
        <path d="M1424.06 -96.02L1424.06 -96.02" stroke="rgba(8, 51, 68, 1)" stroke-width="1.5"></path>
        <path d="M1424.06 -96.02L1597.32 -110.4" stroke="rgba(8, 51, 68, 1)" stroke-width="1.5"></path>
        <path d="M1424.06 -96.02L1397.75 94.83" stroke="rgba(8, 51, 68, 1)" stroke-width="1.5"></path>
        <path d="M1397.75 94.83L1397.75 94.83" stroke="rgba(8, 51, 68, 1)" stroke-width="1.5"></path>
        <path d="M1397.75 94.83L1428.37 217.77" stroke="rgba(8, 51, 68, 1)" stroke-width="1.5"></path>
        <path d="M1397.75 94.83L1579.81 110.18" stroke="rgba(8, 51, 68, 1)" stroke-width="1.5"></path>
        <path d="M1428.37 217.77L1428.37 217.77" stroke="rgba(8, 51, 68, 1)" stroke-width="1.5"></path>
        <path d="M1428.37 217.77L1404.22 352.97" stroke="rgba(8, 51, 68, 1)" stroke-width="1.5"></path>
        <path d="M1428.37 217.77L1579.81 110.18" stroke="rgba(8, 51, 68, 1)" stroke-width="1.5"></path>
        <path d="M1428.37 217.77L1306.68 395.17" stroke="rgba(8, 51, 68, 1)" stroke-width="1.5"></path>
        <path d="M1404.22 352.97L1404.22 352.97" stroke="rgba(8, 51, 68, 1)" stroke-width="1.5"></path>
        <path d="M1404.22 352.97L1390.33 528.62" stroke="rgba(8, 51, 68, 1)" stroke-width="1.5"></path>
        <path d="M1404.22 352.97L1609.96 379.77" stroke="rgba(8, 51, 68, 1)" stroke-width="1.5"></path>
        <path d="M1404.22 352.97L1300.12 537.8" stroke="rgba(8, 51, 68, 1)" stroke-width="1.5"></path>
        <path d="M1390.33 528.62L1390.33 528.62" stroke="rgba(8, 51, 68, 1)" stroke-width="1.5"></path>
        <path d="M1390.33 528.62L1306.68 395.17" stroke="rgba(8, 51, 68, 1)" stroke-width="1.5"></path>
        <path d="M1446.75 687.98L1446.75 687.98" stroke="rgba(8, 51, 68, 1)" stroke-width="1.5"></path>
        <path d="M1446.75 687.98L1538.5 643.22" stroke="rgba(8, 51, 68, 1)" stroke-width="1.5"></path>
        <path d="M1446.75 687.98L1390.33 528.62" stroke="rgba(8, 51, 68, 1)" stroke-width="1.5"></path>
        <path d="M1446.75 687.98L1300.12 537.8" stroke="rgba(8, 51, 68, 1)" stroke-width="1.5"></path>
        <path d="M1597.32 -110.4L1597.32 -110.4" stroke="rgba(8, 51, 68, 1)" stroke-width="1.5"></path>
        <path d="M1597.32 -110.4L1579.81 110.18" stroke="rgba(8, 51, 68, 1)" stroke-width="1.5"></path>
        <path d="M1597.32 -110.4L1397.75 94.83" stroke="rgba(8, 51, 68, 1)" stroke-width="1.5"></path>
        <path d="M1579.81 110.18L1579.81 110.18" stroke="rgba(8, 51, 68, 1)" stroke-width="1.5"></path>
        <path d="M1609.96 379.77L1609.96 379.77" stroke="rgba(8, 51, 68, 1)" stroke-width="1.5"></path>
        <path d="M1609.96 379.77L1612.06 550" stroke="rgba(8, 51, 68, 1)" stroke-width="1.5"></path>
        <path d="M1609.96 379.77L1428.37 217.77" stroke="rgba(8, 51, 68, 1)" stroke-width="1.5"></path>
        <path d="M1609.96 379.77L1390.33 528.62" stroke="rgba(8, 51, 68, 1)" stroke-width="1.5"></path>
        <path d="M1612.06 550L1612.06 550" stroke="rgba(8, 51, 68, 1)" stroke-width="1.5"></path>
        <path d="M1612.06 550L1538.5 643.22" stroke="rgba(8, 51, 68, 1)" stroke-width="1.5"></path>
        <path d="M1612.06 550L1446.75 687.98" stroke="rgba(8, 51, 68, 1)" stroke-width="1.5"></path>
        <path d="M1612.06 550L1390.33 528.62" stroke="rgba(8, 51, 68, 1)" stroke-width="1.5"></path>
        <path d="M1538.5 643.22L1538.5 643.22" stroke="rgba(8, 51, 68, 1)" stroke-width="1.5"></path>
        <path d="M1538.5 643.22L1390.33 528.62" stroke="rgba(8, 51, 68, 1)" stroke-width="1.5"></path>
        <circle r="5" cx="-47.04" cy="384.81" fill="rgba(8, 51, 68, 1)"></circle>
        <circle r="5" cx="-77.06" cy="497.27" fill="rgba(8, 51, 68, 1)"></circle>
        <circle r="5" cx="-87.19" cy="643.53" fill="rgba(8, 51, 68, 1)"></circle>
        <circle r="5" cx="77.35" cy="375.56" fill="rgba(8, 51, 68, 1)"></circle>
        <circle r="5" cx="74.83" cy="531.39" fill="rgba(8, 51, 68, 1)"></circle>
        <circle r="5" cx="88.51" cy="698.48" fill="rgba(8, 51, 68, 1)"></circle>
        <circle r="5" cx="254.8" cy="369.57" fill="rgba(8, 51, 68, 1)"></circle>
        <circle r="5" cx="234.52" cy="521.25" fill="rgba(8, 51, 68, 1)"></circle>
        <circle r="5" cx="225.52" cy="656.11" fill="rgba(8, 51, 68, 1)"></circle>
        <circle r="5" cx="369.54" cy="410.93" fill="rgba(8, 51, 68, 1)"></circle>
        <circle r="5" cx="345.49" cy="643.44" fill="rgba(8, 51, 68, 1)"></circle>
        <circle r="5" cx="559.56" cy="363.34" fill="rgba(8, 51, 68, 1)"></circle>
        <circle r="5" cx="487.77" cy="559.84" fill="rgba(8, 51, 68, 1)"></circle>
        <circle r="5" cx="524.91" cy="679.93" fill="rgba(8, 51, 68, 1)"></circle>
        <circle r="5" cx="650.26" cy="261.64" fill="rgba(8, 51, 68, 1)"></circle>
        <circle r="5" cx="685.98" cy="398.53" fill="rgba(8, 51, 68, 1)"></circle>
        <circle r="5" cx="667.13" cy="507.94" fill="rgba(8, 51, 68, 1)"></circle>
        <circle r="5" cx="793.64" cy="221.66" fill="rgba(8, 51, 68, 1)"></circle>
        <circle r="5" cx="809.87" cy="377.28" fill="rgba(8, 51, 68, 1)"></circle>
        <circle r="5" cx="850.05" cy="518.45" fill="rgba(8, 51, 68, 1)"></circle>
        <circle r="5" cx="855.24" cy="679.09" fill="rgba(8, 51, 68, 1)"></circle>
        <circle r="5" cx="942.99" cy="-73.74" fill="rgba(8, 51, 68, 1)"></circle>
        <circle r="5" cx="967.23" cy="103.51" fill="rgba(8, 51, 68, 1)"></circle>
        <circle r="5" cx="979.25" cy="238.67" fill="rgba(8, 51, 68, 1)"></circle>
        <circle r="5" cx="949.3" cy="370.2" fill="rgba(8, 51, 68, 1)"></circle>
        <circle r="5" cx="990.99" cy="530.57" fill="rgba(8, 51, 68, 1)"></circle>
        <circle r="5" cx="949.56" cy="657.33" fill="rgba(8, 51, 68, 1)"></circle>
        <circle r="5" cx="1138.53" cy="66.79" fill="rgba(8, 51, 68, 1)"></circle>
        <circle r="5" cx="1119.85" cy="228.77" fill="rgba(8, 51, 68, 1)"></circle>
        <circle r="5" cx="1155.82" cy="385.36" fill="rgba(8, 51, 68, 1)"></circle>
        <circle r="5" cx="1114.8" cy="502.19" fill="rgba(8, 51, 68, 1)"></circle>
        <circle r="5" cx="1119.48" cy="641.03" fill="rgba(8, 51, 68, 1)"></circle>
        <circle r="5" cx="1292.76" cy="-64.12" fill="rgba(8, 51, 68, 1)"></circle>
        <circle r="5" cx="1306.68" cy="395.17" fill="rgba(8, 51, 68, 1)"></circle>
        <circle r="5" cx="1300.12" cy="537.8" fill="rgba(8, 51, 68, 1)"></circle>
        <circle r="5" cx="1303.52" cy="656.15" fill="rgba(8, 51, 68, 1)"></circle>
        <circle r="5" cx="1424.06" cy="-96.02" fill="rgba(8, 51, 68, 1)"></circle>
        <circle r="5" cx="1397.75" cy="94.83" fill="rgba(8, 51, 68, 1)"></circle>
        <circle r="5" cx="1428.37" cy="217.77" fill="rgba(8, 51, 68, 1)"></circle>
        <circle r="5" cx="1404.22" cy="352.97" fill="rgba(8, 51, 68, 1)"></circle>
        <circle r="5" cx="1390.33" cy="528.62" fill="rgba(8, 51, 68, 1)"></circle>
        <circle r="5" cx="1446.75" cy="687.98" fill="rgba(8, 51, 68, 1)"></circle>
        <circle r="5" cx="1597.32" cy="-110.4" fill="rgba(8, 51, 68, 1)"></circle>
        <circle r="5" cx="1579.81" cy="110.18" fill="rgba(8, 51, 68, 1)"></circle>
        <circle r="5" cx="1609.96" cy="379.77" fill="rgba(8, 51, 68, 1)"></circle>
        <circle r="5" cx="1612.06" cy="550" fill="rgba(8, 51, 68, 1)"></circle>
        <circle r="5" cx="1538.5" cy="643.22" fill="rgba(8, 51, 68, 1)"></circle>
        <path d="M106.67 515.6L106.67 515.6" stroke="hsl(187.89999999999998, 85.7%, 69.3%)" stroke-width="1.5"></path>
        <path d="M106.67 515.6L220.23 493.94" stroke="hsl(187.89999999999998, 85.7%, 69.3%)" stroke-width="1.5"></path>
        <path d="M106.67 515.6L197.23 643.15" stroke="hsl(187.89999999999998, 85.7%, 69.3%)" stroke-width="1.5"></path>
        <path d="M106.67 515.6L111.22 675.12" stroke="hsl(187.89999999999998, 85.7%, 69.3%)" stroke-width="1.5"></path>
        <path d="M106.67 515.6L-56.48 560.18" stroke="hsl(187.89999999999998, 85.7%, 69.3%)" stroke-width="1.5"></path>
        <path d="M220.23 493.94L220.23 493.94" stroke="hsl(187.89999999999998, 85.7%, 69.3%)" stroke-width="1.5"></path>
        <path d="M220.23 493.94L197.23 643.15" stroke="hsl(187.89999999999998, 85.7%, 69.3%)" stroke-width="1.5"></path>
        <path d="M697.84 521.23L697.84 521.23" stroke="hsl(187.89999999999998, 85.7%, 69.3%)" stroke-width="1.5"></path>
        <path d="M697.84 521.23L805.38 516.31" stroke="hsl(187.89999999999998, 85.7%, 69.3%)" stroke-width="1.5"></path>
        <path d="M697.84 521.23L693.7 398.71" stroke="hsl(187.89999999999998, 85.7%, 69.3%)" stroke-width="1.5"></path>
        <path d="M697.84 521.23L699.95 656.05" stroke="hsl(187.89999999999998, 85.7%, 69.3%)" stroke-width="1.5"></path>
        <path d="M697.84 521.23L561.19 549.31" stroke="hsl(187.89999999999998, 85.7%, 69.3%)" stroke-width="1.5"></path>
        <path d="M697.84 521.23L795.13 648.53" stroke="hsl(187.89999999999998, 85.7%, 69.3%)" stroke-width="1.5"></path>
        <path d="M697.84 521.23L839.27 358.5" stroke="hsl(187.89999999999998, 85.7%, 69.3%)" stroke-width="1.5"></path>
        <path d="M964.25 341.61L964.25 341.61" stroke="hsl(187.89999999999998, 85.7%, 69.3%)" stroke-width="1.5"></path>
        <path d="M964.25 341.61L963.2 251.4" stroke="hsl(187.89999999999998, 85.7%, 69.3%)" stroke-width="1.5"></path>
        <path d="M964.25 341.61L839.27 358.5" stroke="hsl(187.89999999999998, 85.7%, 69.3%)" stroke-width="1.5"></path>
        <path d="M964.25 341.61L960.67 536.31" stroke="hsl(187.89999999999998, 85.7%, 69.3%)" stroke-width="1.5"></path>
        <path d="M954.56 687.85L954.56 687.85" stroke="hsl(187.89999999999998, 85.7%, 69.3%)" stroke-width="1.5"></path>
        <path d="M954.56 687.85L960.67 536.31" stroke="hsl(187.89999999999998, 85.7%, 69.3%)" stroke-width="1.5"></path>
        <path d="M954.56 687.85L795.13 648.53" stroke="hsl(187.89999999999998, 85.7%, 69.3%)" stroke-width="1.5"></path>
        <path d="M954.56 687.85L1131.7 674.59" stroke="hsl(187.89999999999998, 85.7%, 69.3%)" stroke-width="1.5"></path>
        <path d="M954.56 687.85L805.38 516.31" stroke="hsl(187.89999999999998, 85.7%, 69.3%)" stroke-width="1.5"></path>
        <path d="M954.56 687.85L1113.55 511.17" stroke="hsl(187.89999999999998, 85.7%, 69.3%)" stroke-width="1.5"></path>
        <path d="M954.56 687.85L699.95 656.05" stroke="hsl(187.89999999999998, 85.7%, 69.3%)" stroke-width="1.5"></path>
        <path d="M1281.97 258.35L1281.97 258.35" stroke="hsl(187.89999999999998, 85.7%, 69.3%)" stroke-width="1.5"></path>
        <path d="M1281.97 258.35L1304.56 347.67" stroke="hsl(187.89999999999998, 85.7%, 69.3%)" stroke-width="1.5"></path>
        <path d="M1281.97 258.35L1115.33 199.31" stroke="hsl(187.89999999999998, 85.7%, 69.3%)" stroke-width="1.5"></path>
        <path d="M1281.97 258.35L1439.78 358.57" stroke="hsl(187.89999999999998, 85.7%, 69.3%)" stroke-width="1.5"></path>
        <path d="M1281.97 258.35L1267.72 63.87" stroke="hsl(187.89999999999998, 85.7%, 69.3%)" stroke-width="1.5"></path>
        <path d="M1281.97 258.35L1393.7 77.79" stroke="hsl(187.89999999999998, 85.7%, 69.3%)" stroke-width="1.5"></path>
        <path d="M1269.42 510.66L1269.42 510.66" stroke="hsl(187.89999999999998, 85.7%, 69.3%)" stroke-width="1.5"></path>
        <path d="M1269.42 510.66L1411.97 515.59" stroke="hsl(187.89999999999998, 85.7%, 69.3%)" stroke-width="1.5"></path>
        <path d="M1269.42 510.66L1113.55 511.17" stroke="hsl(187.89999999999998, 85.7%, 69.3%)" stroke-width="1.5"></path>
        <path d="M1269.42 510.66L1304.56 347.67" stroke="hsl(187.89999999999998, 85.7%, 69.3%)" stroke-width="1.5"></path>
        <path d="M1269.42 510.66L1269.66 679.6" stroke="hsl(187.89999999999998, 85.7%, 69.3%)" stroke-width="1.5"></path>
        <path d="M1269.66 679.6L1269.66 679.6" stroke="hsl(187.89999999999998, 85.7%, 69.3%)" stroke-width="1.5"></path>
        <path d="M1269.66 679.6L1401 691.76" stroke="hsl(187.89999999999998, 85.7%, 69.3%)" stroke-width="1.5"></path>
        <path d="M1269.66 679.6L1131.7 674.59" stroke="hsl(187.89999999999998, 85.7%, 69.3%)" stroke-width="1.5"></path>
        <path d="M1269.66 679.6L1411.97 515.59" stroke="hsl(187.89999999999998, 85.7%, 69.3%)" stroke-width="1.5"></path>
        <path d="M1269.66 679.6L1113.55 511.17" stroke="hsl(187.89999999999998, 85.7%, 69.3%)" stroke-width="1.5"></path>
        <path d="M1269.66 679.6L1569.36 695.4" stroke="hsl(187.89999999999998, 85.7%, 69.3%)" stroke-width="1.5"></path>
        <path d="M1439.78 358.57L1439.78 358.57" stroke="hsl(187.89999999999998, 85.7%, 69.3%)" stroke-width="1.5"></path>
        <path d="M1439.78 358.57L1304.56 347.67" stroke="hsl(187.89999999999998, 85.7%, 69.3%)" stroke-width="1.5"></path>
        <path d="M1439.78 358.57L1581.27 384.2" stroke="hsl(187.89999999999998, 85.7%, 69.3%)" stroke-width="1.5"></path>
        <path d="M1439.78 358.57L1411.97 515.59" stroke="hsl(187.89999999999998, 85.7%, 69.3%)" stroke-width="1.5"></path>
        <path d="M1439.78 358.57L1595.65 210.19" stroke="hsl(187.89999999999998, 85.7%, 69.3%)" stroke-width="1.5"></path>
        <path d="M1439.78 358.57L1269.42 510.66" stroke="hsl(187.89999999999998, 85.7%, 69.3%)" stroke-width="1.5"></path>
        <path d="M1609.18 78.16L1609.18 78.16" stroke="hsl(187.89999999999998, 85.7%, 69.3%)" stroke-width="1.5"></path>
        <path d="M1609.18 78.16L1595.65 210.19" stroke="hsl(187.89999999999998, 85.7%, 69.3%)" stroke-width="1.5"></path>
        <path d="M1609.18 78.16L1595.01 -56.13" stroke="hsl(187.89999999999998, 85.7%, 69.3%)" stroke-width="1.5"></path>
        <path d="M1609.18 78.16L1393.7 77.79" stroke="hsl(187.89999999999998, 85.7%, 69.3%)" stroke-width="1.5"></path>
        <path d="M1609.18 78.16L1405.58 -76.39" stroke="hsl(187.89999999999998, 85.7%, 69.3%)" stroke-width="1.5"></path>
        <path d="M1569.36 695.4L1569.36 695.4" stroke="hsl(187.89999999999998, 85.7%, 69.3%)" stroke-width="1.5"></path>
        <path d="M1569.36 695.4L1401 691.76" stroke="hsl(187.89999999999998, 85.7%, 69.3%)" stroke-width="1.5"></path>
        <path d="M1569.36 695.4L1411.97 515.59" stroke="hsl(187.89999999999998, 85.7%, 69.3%)" stroke-width="1.5"></path>
        <path d="M-56.48 560.18L-56.48 560.18" stroke="hsl(187.89999999999998, 85.7%, 69.3%)" stroke-width="1.5"></path>
        <path d="M-56.48 560.18L-96.32 646.06" stroke="hsl(187.89999999999998, 85.7%, 69.3%)" stroke-width="1.5"></path>
        <path d="M-96.32 646.06L-96.32 646.06" stroke="hsl(187.89999999999998, 85.7%, 69.3%)" stroke-width="1.5"></path>
        <path d="M-96.32 646.06L111.22 675.12" stroke="hsl(187.89999999999998, 85.7%, 69.3%)" stroke-width="1.5"></path>
        <path d="M-96.32 646.06L106.67 515.6" stroke="hsl(187.89999999999998, 85.7%, 69.3%)" stroke-width="1.5"></path>
        <path d="M-96.32 646.06L197.23 643.15" stroke="hsl(187.89999999999998, 85.7%, 69.3%)" stroke-width="1.5"></path>
        <path d="M-96.32 646.06L220.23 493.94" stroke="hsl(187.89999999999998, 85.7%, 69.3%)" stroke-width="1.5"></path>
        <path d="M111.22 675.12L111.22 675.12" stroke="hsl(187.89999999999998, 85.7%, 69.3%)" stroke-width="1.5"></path>
        <path d="M111.22 675.12L197.23 643.15" stroke="hsl(187.89999999999998, 85.7%, 69.3%)" stroke-width="1.5"></path>
        <path d="M111.22 675.12L-56.48 560.18" stroke="hsl(187.89999999999998, 85.7%, 69.3%)" stroke-width="1.5"></path>
        <path d="M197.23 643.15L197.23 643.15" stroke="hsl(187.89999999999998, 85.7%, 69.3%)" stroke-width="1.5"></path>
        <path d="M197.23 643.15L366.62 668.6" stroke="hsl(187.89999999999998, 85.7%, 69.3%)" stroke-width="1.5"></path>
        <path d="M391.17 496.05L391.17 496.05" stroke="hsl(187.89999999999998, 85.7%, 69.3%)" stroke-width="1.5"></path>
        <path d="M391.17 496.05L220.23 493.94" stroke="hsl(187.89999999999998, 85.7%, 69.3%)" stroke-width="1.5"></path>
        <path d="M391.17 496.05L366.62 668.6" stroke="hsl(187.89999999999998, 85.7%, 69.3%)" stroke-width="1.5"></path>
        <path d="M391.17 496.05L561.19 549.31" stroke="hsl(187.89999999999998, 85.7%, 69.3%)" stroke-width="1.5"></path>
        <path d="M366.62 668.6L366.62 668.6" stroke="hsl(187.89999999999998, 85.7%, 69.3%)" stroke-width="1.5"></path>
        <path d="M366.62 668.6L531.9 700.74" stroke="hsl(187.89999999999998, 85.7%, 69.3%)" stroke-width="1.5"></path>
        <path d="M366.62 668.6L220.23 493.94" stroke="hsl(187.89999999999998, 85.7%, 69.3%)" stroke-width="1.5"></path>
        <path d="M366.62 668.6L561.19 549.31" stroke="hsl(187.89999999999998, 85.7%, 69.3%)" stroke-width="1.5"></path>
        <path d="M561.19 549.31L561.19 549.31" stroke="hsl(187.89999999999998, 85.7%, 69.3%)" stroke-width="1.5"></path>
        <path d="M561.19 549.31L531.9 700.74" stroke="hsl(187.89999999999998, 85.7%, 69.3%)" stroke-width="1.5"></path>
        <path d="M561.19 549.31L699.95 656.05" stroke="hsl(187.89999999999998, 85.7%, 69.3%)" stroke-width="1.5"></path>
        <path d="M531.9 700.74L531.9 700.74" stroke="hsl(187.89999999999998, 85.7%, 69.3%)" stroke-width="1.5"></path>
        <path d="M531.9 700.74L699.95 656.05" stroke="hsl(187.89999999999998, 85.7%, 69.3%)" stroke-width="1.5"></path>
        <path d="M693.7 398.71L693.7 398.71" stroke="hsl(187.89999999999998, 85.7%, 69.3%)" stroke-width="1.5"></path>
        <path d="M693.7 398.71L839.27 358.5" stroke="hsl(187.89999999999998, 85.7%, 69.3%)" stroke-width="1.5"></path>
        <path d="M693.7 398.71L805.38 516.31" stroke="hsl(187.89999999999998, 85.7%, 69.3%)" stroke-width="1.5"></path>
        <path d="M693.7 398.71L561.19 549.31" stroke="hsl(187.89999999999998, 85.7%, 69.3%)" stroke-width="1.5"></path>
        <path d="M693.7 398.71L699.95 656.05" stroke="hsl(187.89999999999998, 85.7%, 69.3%)" stroke-width="1.5"></path>
        <path d="M699.95 656.05L699.95 656.05" stroke="hsl(187.89999999999998, 85.7%, 69.3%)" stroke-width="1.5"></path>
        <path d="M699.95 656.05L795.13 648.53" stroke="hsl(187.89999999999998, 85.7%, 69.3%)" stroke-width="1.5"></path>
        <path d="M699.95 656.05L805.38 516.31" stroke="hsl(187.89999999999998, 85.7%, 69.3%)" stroke-width="1.5"></path>
        <path d="M839.27 358.5L839.27 358.5" stroke="hsl(187.89999999999998, 85.7%, 69.3%)" stroke-width="1.5"></path>
        <path d="M839.27 358.5L805.38 516.31" stroke="hsl(187.89999999999998, 85.7%, 69.3%)" stroke-width="1.5"></path>
        <path d="M839.27 358.5L963.2 251.4" stroke="hsl(187.89999999999998, 85.7%, 69.3%)" stroke-width="1.5"></path>
        <path d="M805.38 516.31L805.38 516.31" stroke="hsl(187.89999999999998, 85.7%, 69.3%)" stroke-width="1.5"></path>
        <path d="M805.38 516.31L795.13 648.53" stroke="hsl(187.89999999999998, 85.7%, 69.3%)" stroke-width="1.5"></path>
        <path d="M795.13 648.53L795.13 648.53" stroke="hsl(187.89999999999998, 85.7%, 69.3%)" stroke-width="1.5"></path>
        <path d="M795.13 648.53L960.67 536.31" stroke="hsl(187.89999999999998, 85.7%, 69.3%)" stroke-width="1.5"></path>
        <path d="M795.13 648.53L561.19 549.31" stroke="hsl(187.89999999999998, 85.7%, 69.3%)" stroke-width="1.5"></path>
        <path d="M963.2 251.4L963.2 251.4" stroke="hsl(187.89999999999998, 85.7%, 69.3%)" stroke-width="1.5"></path>
        <path d="M963.2 251.4L1115.33 199.31" stroke="hsl(187.89999999999998, 85.7%, 69.3%)" stroke-width="1.5"></path>
        <path d="M960.67 536.31L960.67 536.31" stroke="hsl(187.89999999999998, 85.7%, 69.3%)" stroke-width="1.5"></path>
        <path d="M960.67 536.31L1113.55 511.17" stroke="hsl(187.89999999999998, 85.7%, 69.3%)" stroke-width="1.5"></path>
        <path d="M960.67 536.31L805.38 516.31" stroke="hsl(187.89999999999998, 85.7%, 69.3%)" stroke-width="1.5"></path>
        <path d="M1153.67 41.23L1153.67 41.23" stroke="hsl(187.89999999999998, 85.7%, 69.3%)" stroke-width="1.5"></path>
        <path d="M1153.67 41.23L1267.72 63.87" stroke="hsl(187.89999999999998, 85.7%, 69.3%)" stroke-width="1.5"></path>
        <path d="M1153.67 41.23L1115.33 199.31" stroke="hsl(187.89999999999998, 85.7%, 69.3%)" stroke-width="1.5"></path>
        <path d="M1153.67 41.23L1291.08 -89.21" stroke="hsl(187.89999999999998, 85.7%, 69.3%)" stroke-width="1.5"></path>
        <path d="M1115.33 199.31L1115.33 199.31" stroke="hsl(187.89999999999998, 85.7%, 69.3%)" stroke-width="1.5"></path>
        <path d="M1115.33 199.31L1267.72 63.87" stroke="hsl(187.89999999999998, 85.7%, 69.3%)" stroke-width="1.5"></path>
        <path d="M1113.55 511.17L1113.55 511.17" stroke="hsl(187.89999999999998, 85.7%, 69.3%)" stroke-width="1.5"></path>
        <path d="M1113.55 511.17L1131.7 674.59" stroke="hsl(187.89999999999998, 85.7%, 69.3%)" stroke-width="1.5"></path>
        <path d="M1131.7 674.59L1131.7 674.59" stroke="hsl(187.89999999999998, 85.7%, 69.3%)" stroke-width="1.5"></path>
        <path d="M1131.7 674.59L1269.42 510.66" stroke="hsl(187.89999999999998, 85.7%, 69.3%)" stroke-width="1.5"></path>
        <path d="M1291.08 -89.21L1291.08 -89.21" stroke="hsl(187.89999999999998, 85.7%, 69.3%)" stroke-width="1.5"></path>
        <path d="M1291.08 -89.21L1405.58 -76.39" stroke="hsl(187.89999999999998, 85.7%, 69.3%)" stroke-width="1.5"></path>
        <path d="M1291.08 -89.21L1267.72 63.87" stroke="hsl(187.89999999999998, 85.7%, 69.3%)" stroke-width="1.5"></path>
        <path d="M1267.72 63.87L1267.72 63.87" stroke="hsl(187.89999999999998, 85.7%, 69.3%)" stroke-width="1.5"></path>
        <path d="M1267.72 63.87L1393.7 77.79" stroke="hsl(187.89999999999998, 85.7%, 69.3%)" stroke-width="1.5"></path>
        <path d="M1304.56 347.67L1304.56 347.67" stroke="hsl(187.89999999999998, 85.7%, 69.3%)" stroke-width="1.5"></path>
        <path d="M1304.56 347.67L1411.97 515.59" stroke="hsl(187.89999999999998, 85.7%, 69.3%)" stroke-width="1.5"></path>
        <path d="M1304.56 347.67L1115.33 199.31" stroke="hsl(187.89999999999998, 85.7%, 69.3%)" stroke-width="1.5"></path>
        <path d="M1304.56 347.67L1113.55 511.17" stroke="hsl(187.89999999999998, 85.7%, 69.3%)" stroke-width="1.5"></path>
        <path d="M1405.58 -76.39L1405.58 -76.39" stroke="hsl(187.89999999999998, 85.7%, 69.3%)" stroke-width="1.5"></path>
        <path d="M1393.7 77.79L1393.7 77.79" stroke="hsl(187.89999999999998, 85.7%, 69.3%)" stroke-width="1.5"></path>
        <path d="M1393.7 77.79L1405.58 -76.39" stroke="hsl(187.89999999999998, 85.7%, 69.3%)" stroke-width="1.5"></path>
        <path d="M1393.7 77.79L1291.08 -89.21" stroke="hsl(187.89999999999998, 85.7%, 69.3%)" stroke-width="1.5"></path>
        <path d="M1393.7 77.79L1595.65 210.19" stroke="hsl(187.89999999999998, 85.7%, 69.3%)" stroke-width="1.5"></path>
        <path d="M1411.97 515.59L1411.97 515.59" stroke="hsl(187.89999999999998, 85.7%, 69.3%)" stroke-width="1.5"></path>
        <path d="M1411.97 515.59L1401 691.76" stroke="hsl(187.89999999999998, 85.7%, 69.3%)" stroke-width="1.5"></path>
        <path d="M1401 691.76L1401 691.76" stroke="hsl(187.89999999999998, 85.7%, 69.3%)" stroke-width="1.5"></path>
        <path d="M1401 691.76L1269.42 510.66" stroke="hsl(187.89999999999998, 85.7%, 69.3%)" stroke-width="1.5"></path>
        <path d="M1401 691.76L1131.7 674.59" stroke="hsl(187.89999999999998, 85.7%, 69.3%)" stroke-width="1.5"></path>
        <path d="M1595.01 -56.13L1595.01 -56.13" stroke="hsl(187.89999999999998, 85.7%, 69.3%)" stroke-width="1.5"></path>
        <path d="M1595.01 -56.13L1405.58 -76.39" stroke="hsl(187.89999999999998, 85.7%, 69.3%)" stroke-width="1.5"></path>
        <path d="M1595.01 -56.13L1393.7 77.79" stroke="hsl(187.89999999999998, 85.7%, 69.3%)" stroke-width="1.5"></path>
        <path d="M1595.65 210.19L1595.65 210.19" stroke="hsl(187.89999999999998, 85.7%, 69.3%)" stroke-width="1.5"></path>
        <path d="M1595.65 210.19L1581.27 384.2" stroke="hsl(187.89999999999998, 85.7%, 69.3%)" stroke-width="1.5"></path>
        <path d="M1581.27 384.2L1581.27 384.2" stroke="hsl(187.89999999999998, 85.7%, 69.3%)" stroke-width="1.5"></path>
        <path d="M1581.27 384.2L1411.97 515.59" stroke="hsl(187.89999999999998, 85.7%, 69.3%)" stroke-width="1.5"></path>
        <path d="M1581.27 384.2L1304.56 347.67" stroke="hsl(187.89999999999998, 85.7%, 69.3%)" stroke-width="1.5"></path>
        <path d="M1581.27 384.2L1609.18 78.16" stroke="hsl(187.89999999999998, 85.7%, 69.3%)" stroke-width="1.5"></path>
        <path d="M1581.27 384.2L1569.36 695.4" stroke="hsl(187.89999999999998, 85.7%, 69.3%)" stroke-width="1.5"></path>
        <circle r="25" cx="106.67" cy="515.6" fill="url(&quot;#SvgjsRadialGradient1027&quot;)"></circle>
        <circle r="25" cx="220.23" cy="493.94" fill="url(&quot;#SvgjsRadialGradient1027&quot;)"></circle>
        <circle r="25" cx="697.84" cy="521.23" fill="url(&quot;#SvgjsRadialGradient1027&quot;)"></circle>
        <circle r="25" cx="964.25" cy="341.61" fill="url(&quot;#SvgjsRadialGradient1027&quot;)"></circle>
        <circle r="25" cx="954.56" cy="687.85" fill="url(&quot;#SvgjsRadialGradient1027&quot;)"></circle>
        <circle r="25" cx="1281.97" cy="258.35" fill="url(&quot;#SvgjsRadialGradient1027&quot;)"></circle>
        <circle r="25" cx="1269.42" cy="510.66" fill="url(&quot;#SvgjsRadialGradient1027&quot;)"></circle>
        <circle r="25" cx="1269.66" cy="679.6" fill="url(&quot;#SvgjsRadialGradient1027&quot;)"></circle>
        <circle r="25" cx="1439.78" cy="358.57" fill="url(&quot;#SvgjsRadialGradient1027&quot;)"></circle>
        <circle r="25" cx="1609.18" cy="78.16" fill="url(&quot;#SvgjsRadialGradient1027&quot;)"></circle>
        <circle r="25" cx="1569.36" cy="695.4" fill="url(&quot;#SvgjsRadialGradient1027&quot;)"></circle>
        <circle r="5" cx="-56.48" cy="560.18" fill="#91e9f7"></circle>
        <circle r="5" cx="-96.32" cy="646.06" fill="#91e9f7"></circle>
        <circle r="5" cx="111.22" cy="675.12" fill="#91e9f7"></circle>
        <circle r="5" cx="197.23" cy="643.15" fill="#91e9f7"></circle>
        <circle r="5" cx="391.17" cy="496.05" fill="#91e9f7"></circle>
        <circle r="5" cx="366.62" cy="668.6" fill="#91e9f7"></circle>
        <circle r="5" cx="561.19" cy="549.31" fill="#91e9f7"></circle>
        <circle r="5" cx="531.9" cy="700.74" fill="#91e9f7"></circle>
        <circle r="5" cx="693.7" cy="398.71" fill="#91e9f7"></circle>
        <circle r="5" cx="699.95" cy="656.05" fill="#91e9f7"></circle>
        <circle r="5" cx="839.27" cy="358.5" fill="#91e9f7"></circle>
        <circle r="5" cx="805.38" cy="516.31" fill="#91e9f7"></circle>
        <circle r="5" cx="795.13" cy="648.53" fill="#91e9f7"></circle>
        <circle r="5" cx="963.2" cy="251.4" fill="#91e9f7"></circle>
        <circle r="5" cx="960.67" cy="536.31" fill="#91e9f7"></circle>
        <circle r="5" cx="1153.67" cy="41.23" fill="#91e9f7"></circle>
        <circle r="5" cx="1115.33" cy="199.31" fill="#91e9f7"></circle>
        <circle r="5" cx="1113.55" cy="511.17" fill="#91e9f7"></circle>
        <circle r="5" cx="1131.7" cy="674.59" fill="#91e9f7"></circle>
        <circle r="5" cx="1291.08" cy="-89.21" fill="#91e9f7"></circle>
        <circle r="5" cx="1267.72" cy="63.87" fill="#91e9f7"></circle>
        <circle r="5" cx="1304.56" cy="347.67" fill="#91e9f7"></circle>
        <circle r="5" cx="1405.58" cy="-76.39" fill="#91e9f7"></circle>
        <circle r="5" cx="1393.7" cy="77.79" fill="#91e9f7"></circle>
        <circle r="5" cx="1411.97" cy="515.59" fill="#91e9f7"></circle>
        <circle r="5" cx="1401" cy="691.76" fill="#91e9f7"></circle>
        <circle r="5" cx="1595.01" cy="-56.13" fill="#91e9f7"></circle>
        <circle r="5" cx="1595.65" cy="210.19" fill="#91e9f7"></circle>
        <circle r="5" cx="1581.27" cy="384.2" fill="#91e9f7"></circle>
    </g>
    <defs>
        <mask id="SvgjsMask1026">
            <rect width="1440" height="560" fill="#ffffff"></rect>
        </mask>
        <radialGradient id="SvgjsRadialGradient1027">
            <stop stop-color="#ffffff" offset="0.1"></stop>
            <stop stop-color="rgba(34, 211, 238, 1)" offset="0.2"></stop>
            <stop stop-color="rgba(34, 211, 238, 0)" offset="1"></stop>
        </radialGradient>
    </defs>
</svg>